<?xml version="1.0" encoding="UTF-8" standalone="no"?>
<!DOCTYPE svg PUBLIC "-//W3C//DTD SVG 1.1//EN" "http://www.w3.org/Graphics/SVG/1.1/DTD/svg11.dtd">
<svg width="100%" height="100%" viewBox="0 0 4500 4500" version="1.1" xmlns="http://www.w3.org/2000/svg" xmlns:xlink="http://www.w3.org/1999/xlink" xml:space="preserve" xmlns:serif="http://www.serif.com/" style="fill-rule:evenodd;clip-rule:evenodd;stroke-linejoin:round;stroke-miterlimit:2;">
    <rect id="Artboard1" x="0" y="0" width="4500" height="4500" style="fill:none;"/>
    <g id="Artboard11" serif:id="Artboard1">
        <g transform="matrix(8.00816,0,0,8.00816,-2997.29,-2359.18)">
            <path d="M466.473,575.559C466.453,550.328 471.5,525.355 481.32,502.117C490.828,479.688 504.559,459.312 521.789,442.105C538.996,424.875 559.371,411.145 581.789,401.637C605.027,391.816 630.012,386.77 655.242,386.793C680.473,386.77 705.457,391.816 728.695,401.637C751.113,411.145 771.488,424.875 788.695,442.105C805.926,459.312 819.656,479.688 829.164,502.105C838.984,525.348 844.031,550.328 844.012,575.559C844.031,600.789 838.984,625.773 829.164,649.012C819.656,671.43 805.926,691.805 788.695,709.012C771.488,726.242 751.113,739.973 728.695,749.48C705.457,759.301 680.473,764.348 655.242,764.328C630.012,764.348 605.027,759.301 581.789,749.48C559.371,739.973 538.996,726.242 521.789,709.012C504.559,691.805 490.828,671.43 481.32,649.012C471.5,625.773 466.453,600.789 466.473,575.559ZM482.516,575.559C482.496,552.48 487.117,529.625 496.102,508.352C504.797,487.84 517.37,469.195 533.137,453.453C548.879,437.688 567.52,425.113 588.047,416.418C609.309,407.434 632.164,402.812 655.242,402.836C678.324,402.812 701.176,407.434 722.438,416.418C742.961,425.113 761.605,437.688 777.348,453.453C793.113,469.195 805.691,487.84 814.383,508.363C823.367,529.625 827.988,552.48 827.969,575.559C827.988,598.641 823.367,621.496 814.383,642.758C805.691,663.281 793.113,681.922 777.348,697.664C761.605,713.43 742.961,726.008 722.438,734.703C701.176,743.684 678.324,748.305 655.242,748.285C632.164,748.305 609.309,743.684 588.047,734.703C567.52,726.008 548.879,713.43 533.137,697.664C517.37,681.922 504.797,663.281 496.102,642.758C487.117,621.496 482.496,598.641 482.516,575.559Z"/>
            <path d="M691.617,714.637L691.605,714.637C691.789,714.262 691.957,713.891 692.109,713.516C692.645,712.133 693.125,710.734 693.562,709.32C694.836,705.258 696.023,701.152 697.102,697.023C698.203,692.957 699.254,688.871 700.258,684.777C700.602,683.363 700.93,681.965 701.262,680.551C701.359,680.113 701.457,679.676 701.551,679.227C701.574,679.129 701.594,679.023 701.617,678.914C701.625,678.797 701.637,678.68 701.648,678.574C701.754,677.688 701.82,676.797 701.828,675.91C701.852,674.723 701.668,673.547 701.305,672.434C701.133,671.965 700.91,671.516 700.621,671.121C700.344,670.723 699.98,670.383 699.586,670.102C699.059,669.738 698.559,669.344 698.098,668.906C697.574,668.434 697.07,667.941 696.59,667.441C695.391,666.188 694.246,664.883 693.145,663.547C690.375,660.18 687.734,656.703 685.254,653.109C683.926,651.215 682.645,649.289 681.402,647.344C680.227,645.516 679.102,643.645 678.043,641.738C677.102,640.082 676.246,638.371 675.488,636.629C675.156,635.867 674.855,635.09 674.602,634.309C674.355,633.559 674.172,632.801 674.043,632.027C673.852,630.746 673.754,629.449 673.754,628.148C673.766,624.254 674.59,620.414 676.195,616.863C676.941,615.184 677.875,613.582 678.965,612.105C680.023,610.66 681.262,609.355 682.645,608.223C682.891,608.02 683.094,607.762 683.223,607.473C683.371,607.121 683.445,606.723 683.445,606.34C683.434,605.656 683.297,604.98 683.039,604.352C682.73,603.578 682.289,602.863 681.746,602.242C680.633,600.938 679.051,600.113 677.348,599.953C675.617,599.75 673.926,599.258 672.367,598.488C670.762,597.719 669.23,596.82 667.777,595.785C666.227,594.703 664.719,593.547 663.254,592.34C661.723,591.09 660.203,589.828 658.707,588.543C656.695,586.801 654.652,585.109 652.566,583.461C651.617,582.703 650.633,581.988 649.637,581.293C648.738,580.66 647.809,580.082 646.859,579.539C645.18,578.574 643.457,577.688 641.703,576.875C640.418,576.285 639.102,575.793 637.746,575.398C636.332,575.004 634.891,574.691 633.434,574.457C631.402,574.125 629.371,573.836 627.328,573.57C625.316,573.301 623.309,573.012 621.297,572.727C618.996,572.371 616.762,571.707 614.645,570.758C612.441,569.762 610.332,568.574 608.355,567.184C606.258,565.73 604.27,564.125 602.398,562.402C600.441,560.605 598.582,558.703 596.816,556.715C593.242,552.672 589.98,548.352 587.094,543.797C584.375,539.59 581.992,535.195 579.961,530.629C578.816,528.086 577.402,525.645 575.777,523.367C573.949,520.812 571.98,518.352 569.875,516.02C567.66,513.559 565.371,511.176 563.008,508.855C560.688,506.578 558.344,504.32 555.969,502.082C553.77,500.02 551.598,497.934 549.445,495.805C548.484,494.855 547.543,493.871 546.613,492.887C545.766,491.977 544.957,491.047 544.176,490.086C543.051,488.684 542.098,487.164 541.328,485.551C540.633,484.094 540.102,482.566 539.703,481.004C539.352,479.594 539.094,478.148 538.914,476.695C538.762,475.398 538.645,474.094 538.547,472.789C538.465,471.645 538.355,470.512 538.219,469.379C538.109,468.461 537.93,467.551 537.672,466.652C537.469,465.957 537.18,465.281 536.793,464.66C536.41,464.074 535.918,463.539 535.359,463.102C533.734,461.859 532.004,460.746 530.184,459.797C527.875,458.578 525.488,457.496 523.051,456.555L519.565,455.207L522.262,448.223L525.758,449.57C528.465,450.621 531.094,451.816 533.66,453.176C535.863,454.32 537.961,455.668 539.938,457.176C541.191,458.148 542.258,459.324 543.117,460.66C543.887,461.883 544.473,463.207 544.871,464.598C545.234,465.871 545.488,467.176 545.652,468.492C545.801,469.742 545.918,470.992 546.012,472.246C546.098,473.441 546.215,474.629 546.355,475.828C546.484,476.961 546.688,478.086 546.965,479.195C547.242,480.277 547.617,481.336 548.09,482.352C548.602,483.434 549.242,484.438 549.992,485.367C550.668,486.203 551.359,487.004 552.09,487.773C552.945,488.695 553.82,489.602 554.711,490.492C556.816,492.566 558.945,494.609 561.094,496.629C563.512,498.898 565.895,501.195 568.258,503.516C570.73,505.934 573.113,508.438 575.438,511.004C577.723,513.551 579.875,516.223 581.863,519.023C583.789,521.699 585.438,524.566 586.793,527.57C588.676,531.797 590.879,535.871 593.391,539.75C596.078,543.988 599.105,547.996 602.418,551.75C604.012,553.547 605.703,555.27 607.469,556.895C609.094,558.395 610.824,559.785 612.645,561.047C614.238,562.168 615.938,563.133 617.715,563.922C619.211,564.598 620.781,565.066 622.41,565.324C624.375,565.602 626.344,565.879 628.312,566.148C630.418,566.426 632.527,566.727 634.621,567.066C636.375,567.344 638.098,567.719 639.809,568.199C641.531,568.703 643.211,569.324 644.836,570.074C646.781,570.98 648.695,571.965 650.559,573.035C651.715,573.688 652.836,574.395 653.914,575.141C655.039,575.922 656.141,576.734 657.211,577.582C659.371,579.293 661.508,581.055 663.594,582.863C665.051,584.113 666.516,585.344 668,586.555C669.328,587.645 670.688,588.684 672.098,589.664C673.223,590.469 674.406,591.164 675.648,591.762C676.43,592.148 677.285,592.402 678.152,592.512C681.746,592.875 685.051,594.605 687.402,597.344C688.484,598.586 689.348,599.996 689.969,601.516C690.59,603.023 690.91,604.641 690.93,606.266C690.941,607.695 690.664,609.121 690.098,610.434C689.488,611.836 688.559,613.066 687.371,614.027C686.473,614.766 685.68,615.602 684.996,616.531C684.215,617.59 683.551,618.723 683.027,619.922C681.852,622.512 681.242,625.324 681.242,628.156C681.242,629.066 681.305,629.977 681.445,630.875C681.508,631.238 681.594,631.602 681.711,631.953C681.895,632.531 682.109,633.086 682.355,633.645C683.016,635.152 683.754,636.637 684.57,638.07C685.562,639.848 686.609,641.602 687.703,643.312C688.898,645.184 690.129,647.023 691.391,648.832C693.766,652.254 696.277,655.578 698.934,658.789C699.914,659.984 700.941,661.152 702.012,662.273C702.387,662.66 702.77,663.043 703.168,663.406C703.371,663.602 703.594,663.781 703.828,663.941C704.941,664.703 705.926,665.664 706.719,666.758C707.422,667.762 707.992,668.863 708.398,670.027C709.039,671.953 709.348,673.977 709.305,676.008C709.297,677.164 709.219,678.305 709.082,679.449C709.07,679.566 709.059,679.676 709.051,679.793C709.008,680.145 708.941,680.508 708.855,680.863C708.762,681.324 708.664,681.773 708.559,682.23C708.227,683.676 707.883,685.117 707.531,686.562C706.516,690.703 705.445,694.828 704.344,698.957C703.23,703.184 702.012,707.375 700.707,711.547C700.227,713.117 699.68,714.68 699.082,716.219C698.867,716.785 698.609,717.355 698.344,717.91C698.043,718.551 697.648,719.141 697.176,719.664C696.578,720.285 696.031,720.945 695.562,721.664C694.824,722.703 694.16,723.793 693.562,724.906C692.941,726.027 692.43,727.184 692.012,728.391C691.84,728.871 691.703,729.375 691.594,729.891C691.52,730.242 691.477,730.605 691.477,730.98C691.477,731.109 691.488,731.234 691.52,731.363C691.703,731.984 692.066,732.52 692.566,732.914C692.793,733.098 693.039,733.246 693.305,733.355C693.465,733.418 693.637,733.449 693.82,733.449C693.871,733.449 693.926,733.438 693.98,733.418C694.086,733.355 694.184,733.258 694.246,733.152C695.145,731.855 696.203,730.68 697.391,729.652C698.609,728.574 699.906,727.59 701.262,726.691C702.727,725.719 704.227,724.789 705.754,723.91C707.422,722.949 709.094,722.008 710.781,721.086C711.957,720.434 713.113,719.762 714.27,719.055C716,718.016 717.711,716.949 719.422,715.855C723.82,713.055 728.129,710.102 732.332,707.012C734.59,705.355 736.805,703.645 738.973,701.867C741.047,700.188 743.059,698.426 745.004,696.594C746.707,695 748.312,693.312 749.809,691.527C750.43,690.777 751.016,689.996 751.562,689.195C752.023,688.52 752.438,687.824 752.805,687.098C753.945,684.863 755.25,682.715 756.695,680.66C758.246,678.434 759.883,676.266 761.605,674.156C763.379,671.973 765.199,669.824 767.059,667.719C768.879,665.652 770.707,663.602 772.547,661.559C774.836,659.055 777.082,656.508 779.285,653.934C780.148,652.918 780.984,651.879 781.785,650.809C782.375,650.051 782.91,649.258 783.402,648.434C784.332,646.82 785.25,645.184 786.141,643.547C787.113,641.773 788.012,639.977 788.867,638.148C789.648,636.488 790.309,634.777 790.867,633.023C791.09,632.328 791.273,631.613 791.402,630.883C791.508,630.328 791.57,629.762 791.57,629.195C791.582,628.875 791.527,628.543 791.41,628.242C791.402,628.23 791.391,628.223 791.379,628.211C790.801,627.91 790.191,627.664 789.562,627.473C788.715,627.227 787.859,627.023 786.984,626.863C784.867,626.512 782.738,626.23 780.609,626.027C779.477,625.922 778.352,625.793 777.219,625.656C776.129,625.527 775.027,625.355 773.945,625.152C772.887,624.961 771.852,624.703 770.836,624.371C769.785,624.039 768.793,623.57 767.871,622.961C767.082,622.434 766.375,621.793 765.766,621.055C765.219,620.383 764.781,619.621 764.449,618.809C764.184,618.137 763.969,617.43 763.82,616.715C763.699,616.113 763.594,615.516 763.508,614.918C763.422,614.297 763.305,613.688 763.176,613.066C763.047,612.477 762.879,611.891 762.652,611.324C762.395,610.648 762.074,610.02 761.691,609.41C761.188,608.605 760.598,607.859 759.945,607.164C759.059,606.234 758.117,605.367 757.102,604.574C755.68,603.43 754.215,602.34 752.719,601.312C749.016,598.777 745.176,596.457 741.211,594.352C739.133,593.25 737.027,592.199 734.887,591.227C732.879,590.297 730.824,589.461 728.738,588.703C726.93,588.039 725.07,587.496 723.199,587.055C721.777,586.715 720.32,586.531 718.867,586.512C718.59,586.512 718.301,586.523 718.023,586.543C715.422,586.809 712.848,587.281 710.312,587.945C707.754,588.605 705.211,589.344 702.684,590.148C700.516,590.832 698.32,591.473 696.117,592.039C695.09,592.309 694.055,592.52 693.016,592.691C692.012,592.852 691.008,592.949 689.992,592.961C689.137,592.961 688.289,592.883 687.445,592.715C685.594,592.32 683.754,591.816 681.957,591.195C679.926,590.523 677.957,589.676 676.066,588.672C675.102,588.156 674.172,587.578 673.285,586.938C672.387,586.309 671.551,585.582 670.805,584.789C670.012,583.953 669.348,583.023 668.824,582.008C668.258,580.93 667.906,579.742 667.789,578.523C667.746,578.02 667.562,577.547 667.266,577.141C666.781,576.5 666.203,575.953 665.543,575.516C664.59,574.887 663.594,574.328 662.559,573.859C661.383,573.312 660.195,572.801 658.996,572.316C657.938,571.891 656.891,571.441 655.863,570.98C654.805,570.488 653.875,569.75 653.145,568.844C652.516,568.031 652.035,567.109 651.723,566.137C651.445,565.27 651.254,564.383 651.156,563.484C651.07,562.629 651.027,561.773 651.027,560.906C651.051,559.527 651.102,558.16 651.223,556.789C651.23,556.574 651.254,556.359 651.266,556.148C650.953,556.402 650.645,556.672 650.332,556.938C648.855,558.199 647.328,559.398 645.746,560.531C644.91,561.121 644.035,561.656 643.125,562.125C642.16,562.617 641.148,563.004 640.086,563.238C639.371,563.398 638.645,563.473 637.906,563.465C636.773,563.453 635.637,563.301 634.535,563.004C633.402,562.703 632.301,562.285 631.242,561.773C628.941,560.66 626.836,559.176 625.02,557.387C622.996,555.441 621.348,553.152 620.129,550.629C618.805,547.848 618.121,544.801 618.109,541.719L618.109,541.41C618.129,538.352 618.645,535.312 619.629,532.414C620.504,529.836 621.84,527.441 623.562,525.348C625.148,523.41 627.102,521.805 629.328,520.652C631.469,519.527 633.832,518.906 636.238,518.832C638.227,518.758 640.215,518.629 642.203,518.457C644.281,518.297 646.355,518.16 648.43,518.031C650.621,517.902 652.824,517.828 655.027,517.816C656.387,517.816 657.746,517.859 659.102,517.945C660.367,518.02 661.629,518.168 662.879,518.383C664.066,518.586 665.211,518.906 666.324,519.336C667.543,519.797 668.645,520.512 669.551,521.422C670.109,522.031 670.762,522.523 671.5,522.887C671.852,523.066 672.246,523.152 672.645,523.164C672.738,523.164 672.824,523.152 672.91,523.121C673.113,522.66 673.328,522.203 673.574,521.762C673.906,521.145 674.246,520.531 674.609,519.934C675.629,518.234 676.664,516.543 677.723,514.863C680.578,510.297 683.383,505.699 686.141,501.066C687.359,498.992 688.535,496.887 689.68,494.77C690.215,493.785 690.75,492.801 691.305,491.828C691.797,490.941 692.332,490.051 692.879,489.188C693.949,487.473 695.242,485.902 696.727,484.535C698.363,483.09 700.227,481.934 702.234,481.109C703.348,480.641 704.504,480.246 705.668,479.922C706.996,479.551 708.344,479.23 709.703,478.973C711.703,478.586 713.723,478.297 715.746,478.105C717.66,477.926 719.574,477.762 721.5,477.645C723.68,477.516 725.863,477.312 728.031,477.059C728.922,476.941 729.797,476.789 730.676,476.598C731.379,476.438 732.074,476.234 732.75,475.965C733.242,475.785 733.711,475.539 734.148,475.238C734.449,475.023 734.719,474.77 734.941,474.469C735.168,474.172 735.328,473.828 735.445,473.477C735.605,472.906 735.703,472.32 735.703,471.723L735.723,469.988C735.742,467.281 735.551,464.586 735.145,461.914C734.941,460.652 734.664,459.398 734.301,458.172C733.969,457.035 733.531,455.926 733.004,454.867C732.523,453.902 731.926,453.004 731.242,452.172C730.578,451.379 729.809,450.695 728.965,450.105C728.031,449.484 727.016,448.992 725.938,448.652C724.602,448.234 723.211,447.988 721.809,447.914C718.973,447.723 716.152,447.41 713.348,446.961C710.836,446.555 708.344,446.105 705.852,445.613C703.637,445.176 701.422,444.781 699.199,444.438C697.328,444.137 695.434,443.977 693.531,443.957C692.301,443.945 691.082,444.062 689.875,444.289C688.75,444.512 687.66,444.875 686.621,445.367C683.703,446.781 680.676,447.965 677.586,448.918C675.586,449.539 673.562,450.051 671.5,450.426C669.34,450.844 667.137,451.059 664.934,451.07C662.707,451.102 660.492,450.812 658.355,450.223C656.121,449.613 654.023,448.555 652.207,447.113C651.039,446.203 650.086,445.035 649.434,443.711C648.816,442.414 648.492,440.992 648.504,439.562C648.535,438.031 648.848,436.523 649.434,435.102C650.023,433.688 650.773,432.34 651.68,431.113C652.645,429.797 653.703,428.566 654.879,427.434C656.109,426.234 657.422,425.121 658.812,424.098C661.746,421.934 664.953,420.16 668.344,418.832C670.055,418.148 671.82,417.605 673.617,417.195C675.402,416.781 677.23,416.543 679.059,416.48L679.133,416.48L679.992,416.461L680.074,416.461C681.871,416.48 683.672,416.586 685.457,416.812C687.422,417.035 689.391,417.336 691.348,417.688C695.582,418.461 699.809,419.324 704.012,420.277C708.098,421.195 712.191,422.031 716.312,422.789C718.109,423.113 719.914,423.379 721.723,423.594C723.219,423.773 724.719,423.871 726.227,423.883C726.91,423.891 727.594,423.852 728.277,423.773C728.781,423.723 729.273,423.637 729.754,423.496C730.023,423.422 730.277,423.316 730.516,423.164C730.566,423.133 730.609,423.102 730.641,423.047C731.648,421.688 732.59,420.289 733.477,418.844C734.48,417.188 735.445,415.488 736.344,413.766L738.066,410.438L744.707,413.895L742.984,417.219C742.012,419.09 740.965,420.941 739.863,422.746C738.855,424.383 737.785,425.988 736.641,427.539C736.023,428.352 735.254,429.047 734.387,429.582C733.574,430.062 732.707,430.438 731.797,430.695C730.91,430.953 730,431.121 729.082,431.219C728.109,431.324 727.145,431.379 726.172,431.367C724.387,431.359 722.598,431.242 720.836,431.027C718.867,430.789 716.922,430.504 714.973,430.148C710.762,429.379 706.559,428.523 702.363,427.57C698.27,426.652 694.141,425.809 690.012,425.047C688.203,424.727 686.387,424.461 684.57,424.246C683.07,424.062 681.574,423.969 680.066,423.945L679.297,423.957C677.949,424.012 676.602,424.191 675.285,424.492C673.852,424.824 672.449,425.25 671.094,425.797C668.301,426.887 665.672,428.352 663.254,430.129C662.141,430.953 661.082,431.84 660.086,432.812C659.223,433.645 658.43,434.555 657.723,435.527C657.168,436.289 656.707,437.102 656.355,437.969C656.129,438.5 656,439.078 655.992,439.656C655.992,439.926 656.055,440.18 656.164,440.426C656.324,440.738 656.547,441.016 656.836,441.23C657.863,442.055 659.059,442.652 660.332,443.004C661.809,443.41 663.34,443.602 664.867,443.594C666.633,443.57 668.387,443.398 670.117,443.078C671.895,442.75 673.637,442.309 675.359,441.773C678.109,440.918 680.793,439.871 683.383,438.621C684.996,437.848 686.695,437.281 688.441,436.941C690.141,436.621 691.871,436.461 693.605,436.469C695.863,436.492 698.129,436.684 700.363,437.047C702.684,437.398 704.996,437.816 707.305,438.277C709.703,438.746 712.117,439.176 714.535,439.57C717.09,439.977 719.668,440.266 722.246,440.438C724.27,440.543 726.27,440.91 728.191,441.52C729.945,442.074 731.625,442.875 733.156,443.902C734.59,444.875 735.871,446.043 736.984,447.367C738.055,448.652 738.965,450.043 739.699,451.527C740.43,452.984 741.027,454.492 741.477,456.051C741.938,457.602 742.289,459.176 742.547,460.758C743.016,463.84 743.23,466.941 743.207,470.051L743.207,470.062L743.188,471.797C743.176,473.09 742.984,474.383 742.609,475.637C742.246,476.82 741.691,477.934 740.953,478.941C740.234,479.891 739.379,480.715 738.406,481.391C737.488,482.031 736.492,482.555 735.445,482.949C734.418,483.355 733.359,483.668 732.289,483.902C731.188,484.148 730.074,484.34 728.953,484.492C726.633,484.77 724.301,484.973 721.957,485.109C720.129,485.227 718.289,485.379 716.461,485.559C714.664,485.73 712.887,485.988 711.113,486.32C709.957,486.543 708.812,486.812 707.68,487.133C706.805,487.379 705.938,487.68 705.094,488.031C703.871,488.523 702.738,489.219 701.754,490.086C700.773,491.004 699.926,492.043 699.219,493.188C698.727,493.934 698.27,494.715 697.828,495.496C697.305,496.438 696.781,497.379 696.27,498.328C695.082,500.535 693.852,502.715 692.578,504.875C689.797,509.559 686.953,514.211 684.066,518.844C683.039,520.48 682.023,522.125 681.027,523.785C680.727,524.297 680.43,524.812 680.152,525.348C680,525.602 679.871,525.871 679.766,526.148C679.188,527.57 678.152,528.758 676.836,529.527C675.531,530.285 674.043,530.672 672.535,530.652C671.027,530.629 669.543,530.266 668.195,529.602C666.695,528.863 665.34,527.871 664.195,526.66C664.035,526.512 663.852,526.406 663.648,526.328C662.996,526.074 662.312,525.879 661.617,525.762C660.633,525.59 659.637,525.473 658.633,525.41C657.445,525.336 656.246,525.305 655.059,525.305C652.996,525.312 650.934,525.379 648.879,525.508C646.859,525.625 644.836,525.762 642.816,525.922C640.707,526.105 638.602,526.234 636.496,526.309C635.211,526.352 633.949,526.684 632.805,527.281C631.477,527.977 630.301,528.93 629.352,530.094C628.195,531.496 627.309,533.102 626.719,534.82C625.992,536.961 625.617,539.207 625.598,541.473L625.598,541.719C625.598,543.676 626.043,545.625 626.891,547.398C627.723,549.133 628.859,550.691 630.238,552.02C631.488,553.25 632.934,554.277 634.504,555.035C635.148,555.344 635.809,555.59 636.484,555.773C636.977,555.902 637.469,555.977 637.969,555.977C638.141,555.988 638.301,555.965 638.461,555.934C638.879,555.836 639.285,555.676 639.672,555.473C640.281,555.164 640.867,554.809 641.426,554.414C642.805,553.43 644.152,552.383 645.434,551.27C646.57,550.297 647.734,549.367 648.953,548.488C649.543,548.062 650.164,547.688 650.816,547.367C651.648,546.949 652.566,546.703 653.5,546.672C655.125,546.641 656.652,547.422 657.594,548.746C658.16,549.59 658.535,550.555 658.688,551.559C658.805,552.34 658.855,553.133 658.848,553.922C658.824,555.078 658.773,556.234 658.676,557.387C658.578,558.586 658.527,559.785 658.516,560.973C658.516,561.547 658.535,562.117 658.602,562.684C658.645,563.078 658.73,563.465 658.848,563.848C658.891,563.965 658.941,564.082 659.016,564.191C659.926,564.609 660.855,564.992 661.789,565.367C663.094,565.902 664.398,566.457 665.68,567.047C667.082,567.688 668.418,568.438 669.691,569.293C671.07,570.199 672.289,571.344 673.273,572.672C674.387,574.168 675.059,575.945 675.242,577.793C675.262,578.062 675.348,578.328 675.465,578.574C675.668,578.961 675.926,579.312 676.227,579.625C676.652,580.082 677.125,580.488 677.637,580.852C678.258,581.301 678.91,581.711 679.586,582.07C681.113,582.875 682.707,583.559 684.344,584.105C685.863,584.617 687.402,585.047 688.977,585.379C689.285,585.441 689.594,585.473 689.914,585.473C690.547,585.461 691.176,585.41 691.797,585.301C692.621,585.176 693.445,585.004 694.258,584.789C696.32,584.254 698.375,583.656 700.406,583.012C703.059,582.168 705.734,581.398 708.418,580.691C711.336,579.934 714.312,579.398 717.305,579.09C717.852,579.047 718.398,579.012 718.93,579.023C720.941,579.047 722.953,579.301 724.91,579.773C727.082,580.277 729.211,580.906 731.305,581.664C733.574,582.488 735.809,583.41 738.012,584.414C740.277,585.453 742.523,586.566 744.727,587.742C748.941,589.977 753.016,592.445 756.941,595.133C758.598,596.266 760.203,597.461 761.766,598.715C763.059,599.73 764.27,600.844 765.402,602.031C766.375,603.066 767.25,604.199 768.012,605.398C768.664,606.414 769.199,607.496 769.637,608.617C770,609.559 770.289,610.52 770.504,611.504C770.664,612.273 770.801,613.055 770.918,613.836C770.984,614.297 771.07,614.766 771.164,615.227C771.219,615.496 771.293,615.762 771.391,616.008C771.445,616.137 771.508,616.242 771.582,616.352C771.699,616.488 771.84,616.605 772,616.715C772.344,616.938 772.727,617.121 773.125,617.238C773.828,617.473 774.555,617.656 775.293,617.793C776.234,617.965 777.176,618.105 778.117,618.223C779.188,618.352 780.258,618.469 781.324,618.586C783.656,618.797 785.969,619.098 788.266,619.492C789.422,619.695 790.555,619.965 791.68,620.297C792.812,620.629 793.895,621.066 794.93,621.621C796.375,622.402 797.539,623.633 798.223,625.129C798.812,626.457 799.09,627.902 799.059,629.344C799.047,630.34 798.941,631.324 798.758,632.297C798.566,633.301 798.32,634.297 798.012,635.281C797.359,637.344 796.566,639.355 795.648,641.312C794.738,643.281 793.754,645.215 792.715,647.129C791.785,648.84 790.836,650.531 789.859,652.211C789.219,653.301 788.512,654.348 787.734,655.355C786.855,656.531 785.934,657.664 784.984,658.789C782.727,661.43 780.426,664.027 778.098,666.594C776.277,668.605 774.473,670.629 772.676,672.66C770.879,674.703 769.125,676.777 767.41,678.883C765.809,680.852 764.277,682.871 762.824,684.957C761.582,686.723 760.461,688.574 759.477,690.5C758.965,691.504 758.387,692.488 757.742,693.418C757.059,694.422 756.332,695.387 755.551,696.316C753.859,698.34 752.055,700.254 750.129,702.051C748.055,704.008 745.914,705.879 743.699,707.676C741.434,709.527 739.125,711.312 736.762,713.043C732.43,716.23 727.988,719.277 723.457,722.168C721.699,723.289 719.926,724.391 718.141,725.461C716.91,726.211 715.66,726.938 714.398,727.641C712.75,728.539 711.113,729.461 709.488,730.402C708.098,731.191 706.738,732.039 705.402,732.926C704.32,733.641 703.297,734.422 702.332,735.277C701.617,735.898 700.973,736.605 700.418,737.387C699.668,738.496 698.652,739.406 697.465,740.051C696.32,740.637 695.051,740.949 693.766,740.938C692.676,740.926 691.594,740.723 690.578,740.328C689.594,739.941 688.688,739.406 687.871,738.742C686.141,737.363 684.891,735.473 684.301,733.344C684.086,732.539 683.98,731.719 683.992,730.895C684,730.039 684.086,729.184 684.27,728.348C684.441,727.523 684.664,726.711 684.941,725.922C685.5,724.34 686.172,722.809 686.973,721.344C687.703,719.984 688.504,718.68 689.391,717.43C690.055,716.434 690.805,715.504 691.617,714.637Z" style="fill-rule:nonzero;"/>
            <path d="M788.012,450.043L791.637,449.121L793.477,456.375L789.852,457.293C789.551,457.367 789.25,457.453 788.953,457.539C788.523,457.668 788.098,457.797 787.668,457.934C786.426,458.332 785.188,458.746 783.969,459.195C781.742,460.008 779.539,460.844 777.336,461.723C776.352,462.117 775.336,462.426 774.301,462.664C773.336,462.887 772.352,462.992 771.359,463.004C770.215,463.004 769.07,462.832 767.969,462.492C766.953,462.18 765.988,461.742 765.082,461.188C764.246,460.672 763.453,460.105 762.695,459.496C761.957,458.887 761.23,458.277 760.512,457.645C759.551,456.789 758.559,455.969 757.551,455.164C756.418,454.266 755.23,453.441 754.012,452.695C752.504,451.785 751.082,450.758 749.766,449.594C748.676,448.641 747.711,447.562 746.91,446.363C746.215,445.316 745.68,444.172 745.336,442.973C745.059,441.945 744.922,440.875 744.93,439.809C744.953,438.801 745.047,437.797 745.219,436.789C745.273,436.449 745.328,436.098 745.348,435.742C745.379,435.324 745.434,434.91 745.52,434.492C745.617,434.02 745.734,433.551 745.871,433.09C745.969,432.77 746.074,432.438 746.191,432.117C746.332,431.754 746.473,431.402 746.621,431.047C747.027,430.074 747.488,429.133 747.988,428.215C748.695,426.918 749.453,425.637 750.246,424.383L752.246,421.219L758.578,425.23L756.566,428.383C755.859,429.508 755.199,430.641 754.555,431.805C754.184,432.5 753.828,433.23 753.52,433.969C753.414,434.203 753.316,434.461 753.219,434.707C753.156,434.887 753.09,435.078 753.039,435.273C752.965,435.496 752.91,435.723 752.867,435.957C752.836,436.074 752.824,436.18 752.812,436.301C752.77,436.887 752.695,437.477 752.598,438.062C752.492,438.672 752.43,439.293 752.418,439.914C752.418,440.266 752.461,440.621 752.559,440.961C752.676,441.402 752.867,441.809 753.125,442.191C753.57,442.844 754.098,443.441 754.695,443.969C755.68,444.832 756.75,445.613 757.883,446.289C759.379,447.195 760.824,448.203 762.203,449.293C763.305,450.18 764.395,451.09 765.465,452.02C766.105,452.586 766.758,453.145 767.434,453.688C767.926,454.094 768.449,454.469 768.996,454.801C769.371,455.027 769.766,455.207 770.184,455.348C770.555,455.453 770.941,455.52 771.328,455.52C771.777,455.508 772.215,455.453 772.652,455.355C773.305,455.219 773.945,455.016 774.566,454.758C776.824,453.871 779.102,453.004 781.391,452.16C782.715,451.68 784.055,451.219 785.402,450.789C785.895,450.641 786.375,450.492 786.867,450.352C787.25,450.234 787.625,450.137 788.012,450.043Z" style="fill-rule:nonzero;"/>
            <path d="M675.156,534.438L675.531,534.395C675.703,534.371 675.871,534.371 676.043,534.371C677.059,534.402 678.055,534.691 678.93,535.219C679.605,535.613 680.215,536.094 680.77,536.652C681.262,537.141 681.746,537.668 682.184,538.211C682.645,538.77 683.094,539.336 683.531,539.902C684.398,541.023 685.305,542.117 686.246,543.176C687.188,544.211 688.227,545.164 689.348,545.996C690.398,546.715 691.305,547.625 692.035,548.66C692.805,549.762 693.23,551.066 693.262,552.414C693.273,553.59 692.934,554.746 692.301,555.742C691.746,556.605 690.996,557.336 690.117,557.879C689.305,558.383 688.418,558.758 687.488,558.98C686.547,559.219 685.586,559.336 684.609,559.324C683.414,559.324 682.227,559.164 681.07,558.852C679.809,558.523 678.59,558.051 677.434,557.43C676.812,557.098 676.195,556.77 675.562,556.445C674.344,555.816 673.137,555.164 671.938,554.488C670.824,553.871 669.766,553.176 668.762,552.402C667.703,551.613 666.793,550.648 666.078,549.539C665.285,548.277 664.855,546.801 664.855,545.301C664.879,544.137 665.102,542.992 665.531,541.902C665.926,540.82 666.43,539.785 667.027,538.801C667.586,537.871 668.301,537.059 669.145,536.395C669.926,535.793 670.805,535.355 671.746,535.09C672.387,534.918 673.039,534.789 673.703,534.691C674.066,534.641 674.43,534.574 674.793,534.488C674.91,534.469 675.039,534.445 675.156,534.438ZM675.508,541.977C675.82,542.285 676.117,542.617 676.387,542.949C676.805,543.453 677.211,543.965 677.605,544.48C678.578,545.742 679.605,546.98 680.676,548.168C681.883,549.516 683.223,550.746 684.664,551.836L684.652,551.836C684.086,551.836 683.52,551.762 682.977,551.613C682.281,551.43 681.594,551.164 680.965,550.82C680.312,550.48 679.668,550.137 679.02,549.793C677.863,549.207 676.719,548.586 675.586,547.945C674.77,547.508 674,546.992 673.273,546.438C672.934,546.18 672.645,545.879 672.406,545.527C672.375,545.473 672.355,545.41 672.355,545.344C672.367,545.078 672.418,544.82 672.527,544.586C672.762,543.91 673.07,543.27 673.434,542.66C673.508,542.543 673.605,542.426 673.715,542.328C673.734,542.32 673.746,542.309 673.766,542.309C674.098,542.211 674.43,542.148 674.77,542.105C675.016,542.062 675.262,542.031 675.508,541.977Z"/>
        </g>
    </g>
</svg>
