<?xml version="1.0" encoding="UTF-8" standalone="no"?>
<!DOCTYPE svg PUBLIC "-//W3C//DTD SVG 1.1//EN" "http://www.w3.org/Graphics/SVG/1.1/DTD/svg11.dtd">
<svg width="100%" height="100%" viewBox="0 0 4501 4501" version="1.1" xmlns="http://www.w3.org/2000/svg" xmlns:xlink="http://www.w3.org/1999/xlink" xml:space="preserve" xmlns:serif="http://www.serif.com/" style="fill-rule:evenodd;clip-rule:evenodd;stroke-linejoin:round;stroke-miterlimit:2;">
    <g transform="matrix(1,0,0,1,-9178,-5309)">
        <g id="Artboard8" transform="matrix(1,0,0,1,-22671.3,5309.63)">
            <rect x="31850" y="0" width="4500" height="4500" style="fill:none;"/>
            <g transform="matrix(8.00816,0,0,8.00816,3627.47,-2359.18)">
                <path d="M3641.71,669.941C3633.34,655.453 3626.92,639.922 3622.63,623.742C3618.5,608.094 3616.41,591.977 3616.42,575.785C3616.42,543.133 3624.86,511.016 3640.9,482.578C3649.01,468.223 3658.97,454.984 3670.52,443.23C3682.48,431.078 3696.03,420.598 3710.8,412.086C3725.29,403.711 3740.82,397.293 3757,393.004C3772.65,388.879 3788.77,386.781 3804.96,386.793C3837.61,386.793 3869.73,395.23 3898.17,411.281C3912.52,419.379 3925.76,429.336 3937.52,440.898C3949.66,452.855 3960.14,466.406 3968.66,481.176C3977.04,495.668 3983.45,511.195 3987.74,527.379C3991.87,543.023 3993.95,559.141 3993.95,575.336C3993.95,607.988 3985.52,640.102 3969.46,668.543C3961.37,682.895 3951.41,696.137 3939.85,707.891C3927.89,720.039 3914.34,730.52 3899.57,739.031C3885.08,747.406 3869.55,753.824 3853.37,758.113C3837.72,762.242 3821.59,764.336 3805.41,764.328C3772.76,764.328 3740.64,755.887 3712.2,739.836C3697.85,731.738 3684.61,721.781 3672.86,710.219C3660.7,698.262 3650.23,684.711 3641.71,669.941ZM3655.61,661.922C3647.94,648.66 3642.07,634.445 3638.14,619.633C3634.36,605.324 3632.45,590.586 3632.46,575.785C3632.46,545.891 3640.18,516.5 3654.88,490.469C3662.29,477.336 3671.39,465.23 3681.96,454.48C3692.91,443.355 3705.31,433.766 3718.82,425.977C3732.09,418.309 3746.3,412.438 3761.1,408.512C3775.41,404.738 3790.16,402.824 3804.96,402.836C3834.86,402.836 3864.24,410.555 3890.28,425.25C3903.41,432.664 3915.52,441.766 3926.27,452.332C3937.39,463.281 3946.98,475.68 3954.77,489.195C3962.43,502.457 3968.31,516.672 3972.22,531.473C3976.01,545.793 3977.91,560.531 3977.91,575.336C3977.91,605.227 3970.19,634.617 3955.49,660.648C3948.08,673.781 3938.98,685.891 3928.41,696.637C3917.47,707.762 3905.07,717.355 3891.55,725.141C3878.28,732.809 3864.07,738.68 3849.27,742.605C3834.95,746.379 3820.21,748.293 3805.41,748.285C3775.52,748.285 3746.13,740.562 3720.09,725.867C3706.95,718.457 3694.86,709.355 3684.1,698.785C3672.98,687.836 3663.39,675.441 3655.61,661.922Z"/>
                <path d="M3826.02,393.52C3826.68,392.781 3827.61,392.344 3828.61,392.289C3829.59,392.246 3830.57,392.59 3831.31,393.25C3832.04,393.926 3832.48,394.855 3832.53,395.84C3832.57,396.836 3832.23,397.809 3831.57,398.547C3825.67,405.07 3819.5,411.348 3813.07,417.367C3806.37,423.637 3799.44,429.648 3792.28,435.379C3777.16,447.465 3761.12,458.383 3744.35,468.043C3728.46,477.238 3711.93,485.293 3694.88,492.117C3686.77,495.367 3678.56,498.309 3670.23,500.941C3662.23,503.484 3654.12,505.711 3645.95,507.625C3644.97,507.848 3643.96,507.676 3643.11,507.152C3642.27,506.629 3641.67,505.797 3641.45,504.832C3641.22,503.859 3641.39,502.844 3641.91,502C3642.44,501.152 3643.27,500.555 3644.24,500.332C3652.23,498.457 3660.15,496.285 3667.97,493.805C3676.12,491.227 3684.16,488.34 3692.1,485.176C3708.81,478.469 3725.02,470.578 3740.61,461.559C3757.06,452.086 3772.77,441.379 3787.6,429.527C3794.61,423.926 3801.4,418.043 3807.95,411.902C3814.22,406.02 3820.25,399.891 3826.02,393.52Z" style="fill-rule:nonzero;"/>
                <path d="M3684.76,591.195C3685.71,590.938 3686.74,591.066 3687.59,591.559C3688.46,592.062 3689.08,592.875 3689.35,593.824C3689.61,594.789 3689.47,595.816 3688.97,596.672C3688.48,597.535 3687.67,598.156 3686.71,598.426C3677.16,601.004 3667.51,603.172 3657.78,604.938C3648.6,606.605 3639.36,607.836 3630.07,608.637C3629.08,608.723 3628.1,608.414 3627.34,607.773C3626.58,607.141 3626.11,606.223 3626.02,605.238C3625.94,604.242 3626.25,603.258 3626.89,602.5C3627.53,601.742 3628.44,601.27 3629.43,601.184C3638.48,600.402 3647.5,599.195 3656.44,597.57C3665.96,595.848 3675.41,593.719 3684.76,591.195Z" style="fill-rule:nonzero;"/>
                <path d="M3817.22,596.402C3818.07,595.902 3819.1,595.773 3820.05,596.031C3821.02,596.285 3821.84,596.906 3822.33,597.773C3822.82,598.629 3822.96,599.656 3822.7,600.605C3822.45,601.57 3821.82,602.383 3820.96,602.883C3809.64,609.418 3798.09,615.578 3786.35,621.324C3775.06,626.863 3763.57,631.996 3751.93,636.734C3740.8,641.246 3729.52,645.367 3718.1,649.055C3707.27,652.562 3696.33,655.645 3685.27,658.285C3684.3,658.508 3683.28,658.348 3682.44,657.836C3681.59,657.312 3681,656.477 3680.76,655.516C3680.52,654.555 3680.7,653.527 3681.21,652.68C3681.73,651.836 3682.57,651.238 3683.53,651C3694.39,648.402 3705.16,645.375 3715.78,641.934C3727.04,638.297 3738.15,634.242 3749.1,629.793C3760.6,625.129 3771.93,620.062 3783.06,614.605C3794.65,608.926 3806.04,602.852 3817.22,596.402Z" style="fill-rule:nonzero;"/>
                <path d="M3984.33,585.59C3984.95,584.809 3985.85,584.309 3986.83,584.199C3987.82,584.082 3988.81,584.359 3989.59,584.98C3990.36,585.602 3990.86,586.5 3990.98,587.484C3991.1,588.469 3990.81,589.461 3990.2,590.242C3982.83,599.527 3974.99,608.426 3966.69,616.883C3957.85,625.922 3948.57,634.531 3938.91,642.68C3928.69,651.289 3918.11,659.441 3907.16,667.098C3895.71,675.121 3883.91,682.625 3871.81,689.609C3861.89,695.344 3851.77,700.711 3841.47,705.719C3840.59,706.145 3839.56,706.211 3838.62,705.891C3837.68,705.559 3836.91,704.871 3836.48,703.984C3836.04,703.086 3835.98,702.059 3836.31,701.129C3836.63,700.188 3837.31,699.418 3838.2,698.98C3848.34,694.059 3858.3,688.766 3868.06,683.129C3879.98,676.254 3891.59,668.852 3902.88,660.961C3913.62,653.43 3924.04,645.418 3934.08,636.949C3943.57,628.961 3952.66,620.512 3961.34,611.645C3969.46,603.375 3977.13,594.672 3984.33,585.59Z" style="fill-rule:nonzero;"/>
                <path d="M3882.18,475.805C3882.88,475.102 3883.83,474.695 3884.81,474.684C3885.81,474.672 3886.77,475.059 3887.47,475.754C3888.18,476.438 3888.59,477.391 3888.6,478.383C3888.61,479.379 3888.22,480.328 3887.53,481.047C3880.54,488.18 3873.29,495.047 3865.78,501.633C3857.92,508.523 3849.83,515.133 3841.48,521.43C3840.7,522.031 3839.7,522.289 3838.72,522.148C3837.73,522.02 3836.84,521.496 3836.25,520.703C3835.64,519.914 3835.39,518.918 3835.53,517.934C3835.66,516.949 3836.18,516.062 3836.97,515.465C3845.16,509.27 3853.12,502.777 3860.84,496.008C3868.21,489.551 3875.32,482.812 3882.18,475.805Z" style="fill-rule:nonzero;"/>
                <path d="M3955.18,480.02C3955.79,479.238 3956.68,478.727 3957.66,478.586C3958.65,478.457 3959.64,478.727 3960.43,479.336C3961.23,479.934 3961.74,480.82 3961.87,481.805C3962,482.789 3961.73,483.797 3961.13,484.578C3955.66,491.73 3949.89,498.66 3943.88,505.367C3937.5,512.469 3930.89,519.348 3924.04,525.977C3923.32,526.672 3922.37,527.047 3921.38,527.035C3920.38,527.016 3919.43,526.609 3918.75,525.891C3918.05,525.176 3917.68,524.223 3917.69,523.227C3917.71,522.234 3918.11,521.293 3918.83,520.598C3925.56,514.082 3932.05,507.336 3938.31,500.363C3944.19,493.805 3949.82,487.023 3955.18,480.02Z" style="fill-rule:nonzero;"/>
                <path d="M3782.28,554.523C3781.35,553.059 3780.64,551.465 3780.18,549.785C3779.73,548.105 3779.51,546.395 3779.52,544.66C3779.55,541.922 3780.03,539.219 3780.95,536.629C3781.93,533.879 3783.24,531.262 3784.88,528.844C3786.64,526.211 3788.68,523.793 3790.96,521.613C3793.42,519.262 3796.09,517.164 3798.97,515.348C3802.65,512.992 3806.63,511.145 3810.8,509.828C3814.59,508.617 3818.53,507.988 3822.5,507.957C3824.41,507.945 3826.31,508.125 3828.19,508.48C3829.99,508.812 3831.74,509.355 3833.41,510.094C3835.06,510.82 3836.59,511.773 3837.97,512.918C3839.37,514.074 3840.57,515.441 3841.54,516.973C3842.47,518.445 3843.18,520.039 3843.62,521.719C3844.07,523.387 3844.3,525.109 3844.28,526.832C3844.27,529.57 3843.77,532.285 3842.86,534.863C3841.89,537.625 3840.57,540.242 3838.93,542.66C3837.18,545.281 3835.13,547.711 3832.84,549.891C3830.39,552.242 3827.71,554.34 3824.83,556.156C3821.15,558.5 3817.18,560.359 3813,561.664C3809.22,562.875 3805.28,563.504 3801.31,563.547C3799.4,563.547 3797.5,563.379 3795.62,563.023C3793.83,562.684 3792.07,562.137 3790.39,561.398C3788.76,560.684 3787.22,559.73 3785.84,558.586C3784.45,557.422 3783.24,556.051 3782.28,554.523ZM3788.6,550.523C3788.06,549.688 3787.67,548.77 3787.41,547.816C3787.14,546.812 3787,545.773 3787,544.727C3787.03,542.812 3787.37,540.93 3788.01,539.133C3788.77,536.973 3789.8,534.918 3791.08,533.023C3792.54,530.844 3794.25,528.832 3796.14,527.016C3798.23,525.004 3800.53,523.219 3802.98,521.668C3806.13,519.668 3809.52,518.082 3813.07,516.973C3816.12,515.988 3819.32,515.473 3822.54,515.441C3823.98,515.441 3825.4,515.57 3826.8,515.84C3828.03,516.062 3829.24,516.438 3830.38,516.949C3831.4,517.387 3832.34,517.977 3833.18,518.672C3833.98,519.336 3834.66,520.117 3835.22,520.98C3835.74,521.816 3836.14,522.727 3836.41,523.676C3836.67,524.684 3836.81,525.73 3836.8,526.777C3836.78,528.684 3836.45,530.574 3835.81,532.371C3835.05,534.523 3834.01,536.574 3832.73,538.48C3831.26,540.648 3829.57,542.672 3827.67,544.48C3825.57,546.488 3823.28,548.285 3820.82,549.836C3817.69,551.836 3814.3,553.422 3810.75,554.531C3807.68,555.516 3804.48,556.031 3801.26,556.062C3799.84,556.062 3798.42,555.934 3797.02,555.664C3795.77,555.43 3794.58,555.055 3793.42,554.555C3792.42,554.105 3791.48,553.527 3790.62,552.82C3789.83,552.168 3789.14,551.387 3788.6,550.523Z"/>
                <path d="M3650.11,648.426L3646.59,649.695L3644.04,642.66L3647.56,641.387C3650.09,640.477 3652.68,639.773 3655.32,639.301C3657.81,638.84 3660.32,638.617 3662.84,638.605C3665.38,638.598 3667.91,638.863 3670.39,639.387C3672.72,639.879 3674.97,640.672 3677.08,641.738C3679.11,642.777 3680.95,644.148 3682.53,645.793C3684.11,647.449 3685.33,649.418 3686.12,651.57C3686.76,653.375 3687.09,655.289 3687.09,657.215C3687.05,660.094 3686.39,662.914 3685.17,665.516C3683.88,668.254 3682.17,670.777 3680.11,672.98C3677.86,675.398 3675.33,677.516 3672.56,679.289C3669.55,681.238 3666.33,682.828 3662.97,684.039L3659.43,685.301L3656.91,678.254L3660.43,676.992C3663.26,675.977 3665.98,674.629 3668.5,673C3670.75,671.559 3672.81,669.836 3674.63,667.879C3676.17,666.23 3677.45,664.359 3678.39,662.328C3679.16,660.715 3679.57,658.949 3679.61,657.152C3679.61,656.113 3679.42,655.086 3679.07,654.113C3678.64,652.938 3677.98,651.867 3677.11,650.957C3676.13,649.922 3674.97,649.066 3673.69,648.426C3672.15,647.645 3670.52,647.066 3668.84,646.715C3666.88,646.297 3664.88,646.082 3662.88,646.094C3660.79,646.102 3658.71,646.297 3656.65,646.66C3654.43,647.066 3652.23,647.652 3650.11,648.426Z" style="fill-rule:nonzero;"/>
                <path d="M3799.16,720.895C3798.38,719.195 3797.97,717.355 3797.98,715.48C3798.01,713.418 3798.43,711.406 3799.22,709.527C3800.04,707.566 3801.13,705.75 3802.47,704.113C3803.9,702.359 3805.53,700.777 3807.34,699.406C3809.26,697.922 3811.35,696.66 3813.56,695.633C3815.69,694.625 3817.91,693.855 3820.2,693.324C3822.34,692.809 3824.53,692.551 3826.73,692.543C3828.32,692.543 3829.9,692.691 3831.47,693.012C3832.96,693.312 3834.41,693.793 3835.78,694.457C3837.15,695.109 3838.41,695.973 3839.5,697.023C3840.62,698.094 3841.53,699.355 3842.18,700.754C3842.97,702.457 3843.38,704.305 3843.37,706.188C3843.34,708.23 3842.92,710.242 3842.13,712.125C3841.31,714.082 3840.21,715.898 3838.88,717.535C3837.44,719.289 3835.82,720.871 3834.01,722.242C3832.08,723.727 3830,724.992 3827.78,726.016C3825.66,727.023 3823.43,727.793 3821.14,728.328C3819,728.828 3816.81,729.098 3814.62,729.109C3813.03,729.109 3811.44,728.957 3809.88,728.637C3808.38,728.336 3806.93,727.855 3805.56,727.191C3804.19,726.539 3802.94,725.676 3801.85,724.625C3800.73,723.559 3799.82,722.297 3799.16,720.895ZM3805.95,717.727C3805.62,717.031 3805.47,716.285 3805.47,715.516C3805.48,714.465 3805.71,713.406 3806.13,712.422C3806.66,711.129 3807.39,709.93 3808.28,708.852C3809.34,707.547 3810.54,706.371 3811.88,705.355C3813.38,704.199 3815.02,703.215 3816.74,702.414C3818.39,701.633 3820.13,701.023 3821.91,700.605C3823.51,700.23 3825.13,700.039 3826.76,700.027C3827.84,700.027 3828.92,700.133 3829.98,700.348C3830.86,700.52 3831.73,700.809 3832.54,701.203C3833.2,701.523 3833.81,701.934 3834.33,702.434C3834.78,702.863 3835.13,703.363 3835.4,703.922C3835.72,704.605 3835.88,705.355 3835.88,706.113C3835.86,707.184 3835.64,708.242 3835.22,709.227C3834.68,710.508 3833.96,711.719 3833.07,712.797C3832.01,714.102 3830.8,715.281 3829.47,716.297C3827.97,717.449 3826.33,718.434 3824.62,719.238C3822.95,720.016 3821.22,720.629 3819.43,721.043C3817.84,721.418 3816.22,721.609 3814.59,721.621C3813.51,721.621 3812.43,721.516 3811.37,721.301C3810.48,721.117 3809.61,720.828 3808.8,720.445C3808.15,720.125 3807.54,719.719 3807.02,719.215C3806.58,718.789 3806.21,718.285 3805.95,717.727Z"/>
                <path d="M3783.64,550.297C3784.5,549.805 3785.52,549.688 3786.48,549.953C3787.43,550.223 3788.25,550.863 3788.73,551.719C3789.22,552.586 3789.34,553.613 3789.07,554.562C3788.8,555.527 3788.16,556.34 3787.29,556.82C3775.53,563.43 3763.48,569.527 3751.18,575.109C3750.28,575.527 3749.24,575.559 3748.32,575.207C3747.39,574.852 3746.63,574.156 3746.22,573.25C3745.82,572.352 3745.77,571.312 3746.13,570.383C3746.48,569.465 3747.18,568.703 3748.09,568.297C3760.18,562.801 3772.04,556.801 3783.64,550.297Z" style="fill-rule:nonzero;"/>
            </g>
        </g>
    </g>
</svg>
