<?xml version="1.0" encoding="UTF-8" standalone="no"?>
<!DOCTYPE svg PUBLIC "-//W3C//DTD SVG 1.1//EN" "http://www.w3.org/Graphics/SVG/1.1/DTD/svg11.dtd">
<svg width="100%" height="100%" viewBox="0 0 4501 4501" version="1.1" xmlns="http://www.w3.org/2000/svg" xmlns:xlink="http://www.w3.org/1999/xlink" xml:space="preserve" xmlns:serif="http://www.serif.com/" style="fill-rule:evenodd;clip-rule:evenodd;stroke-linejoin:round;stroke-miterlimit:2;">
    <g transform="matrix(1,0,0,1,-9173,-10366)">
        <g id="Artboard13" transform="matrix(1,0,0,1,-45426.8,10366.4)">
            <rect x="54600" y="0" width="4500" height="4500" style="fill:none;"/>
            <g transform="matrix(8.00816,0,0,8.00816,26377.5,-7976.65)">
                <path d="M3632.46,1277.02L3632.47,1285.04L3616.43,1285.06L3616.42,1277.04C3616.4,1251.8 3621.45,1226.82 3631.26,1203.57C3640.77,1181.16 3654.5,1160.79 3671.73,1143.57C3688.94,1126.35 3709.32,1112.61 3731.73,1103.11C3754.97,1093.29 3779.96,1088.24 3805.19,1088.26C3830.41,1088.24 3855.4,1093.29 3878.64,1103.11C3901.06,1112.61 3921.43,1126.35 3938.64,1143.57C3955.87,1160.79 3969.6,1181.16 3979.11,1203.57C3988.93,1226.82 3993.98,1251.8 3993.95,1277.04L3993.94,1285.06L3977.9,1285.04L3977.91,1277.02C3977.93,1253.94 3973.31,1231.09 3964.33,1209.83C3955.63,1189.31 3943.06,1170.66 3927.29,1154.92C3911.55,1139.16 3892.91,1126.58 3872.38,1117.89C3851.12,1108.9 3828.27,1104.28 3805.19,1104.31C3782.11,1104.28 3759.25,1108.9 3737.99,1117.89C3717.47,1126.58 3698.82,1139.16 3683.08,1154.92C3667.32,1170.66 3654.74,1189.31 3646.04,1209.83C3637.06,1231.09 3632.44,1253.94 3632.46,1277.02Z" style="fill-rule:nonzero;"/>
                <path d="M3982.59,1242.43L3974.72,1240.86L3977.88,1225.12L3985.75,1226.7C3992.12,1227.98 3998.47,1229.39 4004.78,1230.94C4010.52,1232.34 4016.22,1233.91 4021.88,1235.62C4026.96,1237.14 4031.98,1238.84 4036.95,1240.71C4041.34,1242.36 4045.65,1244.19 4049.88,1246.24C4053.59,1248.01 4057.18,1250.05 4060.62,1252.3C4062.18,1253.34 4063.7,1254.44 4065.15,1255.61C4066.53,1256.71 4067.84,1257.88 4069.1,1259.14C4070.3,1260.34 4071.41,1261.63 4072.41,1263C4073.41,1264.32 4074.27,1265.75 4075.02,1267.23C4076.54,1270.27 4077.36,1273.62 4077.38,1277.02C4077.36,1280.26 4076.62,1283.44 4075.23,1286.37C4074.56,1287.79 4073.77,1289.16 4072.86,1290.44C4071.93,1291.77 4070.91,1293.02 4069.79,1294.19C4067.44,1296.65 4064.83,1298.87 4062.02,1300.81C4058.89,1302.96 4055.62,1304.92 4052.22,1306.64C4048.38,1308.61 4044.43,1310.4 4040.43,1312C4035.9,1313.81 4031.31,1315.46 4026.67,1316.94C4021.5,1318.61 4016.3,1320.13 4011.04,1321.51C4005.28,1323.04 3999.48,1324.43 3993.65,1325.69C3987.32,1327.07 3980.97,1328.33 3974.6,1329.48C3967.75,1330.72 3960.88,1331.84 3954.01,1332.85C3938.96,1335.05 3923.85,1336.85 3908.7,1338.23C3892.08,1339.75 3875.43,1340.89 3858.75,1341.62C3840.91,1342.42 3823.05,1342.81 3805.19,1342.81L3797.16,1342.81L3797.16,1326.76L3805.19,1326.76C3822.81,1326.77 3840.44,1326.38 3858.04,1325.59C3874.47,1324.87 3890.86,1323.75 3907.24,1322.25C3922.09,1320.9 3936.92,1319.14 3951.68,1316.97C3958.39,1315.99 3965.09,1314.89 3971.76,1313.69C3977.94,1312.58 3984.1,1311.36 3990.24,1310.02C3995.84,1308.81 4001.41,1307.46 4006.96,1306C4011.93,1304.69 4016.86,1303.25 4021.76,1301.67C4026.05,1300.29 4030.3,1298.77 4034.48,1297.09C4038.04,1295.68 4041.52,1294.1 4044.94,1292.36C4047.7,1290.95 4050.37,1289.36 4052.91,1287.59C4054.82,1286.29 4056.57,1284.79 4058.17,1283.14C4058.75,1282.53 4059.27,1281.88 4059.75,1281.2C4060.13,1280.65 4060.47,1280.09 4060.75,1279.5C4061.11,1278.73 4061.31,1277.88 4061.33,1277.04C4061.31,1276.12 4061.09,1275.22 4060.67,1274.41C4060.35,1273.75 4059.97,1273.14 4059.55,1272.57C4058.99,1271.82 4058.38,1271.11 4057.72,1270.45C4056.91,1269.63 4056.04,1268.86 4055.13,1268.13C4054.06,1267.27 4052.95,1266.46 4051.79,1265.7C4048.95,1263.83 4045.98,1262.16 4042.91,1260.69C4039.13,1258.86 4035.26,1257.2 4031.31,1255.72C4026.68,1253.98 4022,1252.4 4017.26,1250.98C4011.87,1249.35 4006.43,1247.86 4000.96,1246.53C3994.86,1245.03 3988.75,1243.66 3982.59,1242.43Z" style="fill-rule:nonzero;"/>
                <path d="M3988.1,1272.57L3980.19,1271.29L3982.75,1255.44L3990.68,1256.73C3995.66,1257.54 4000.64,1258.52 4005.57,1259.64C4007.64,1260.11 4009.71,1260.64 4011.76,1261.21C4013.56,1261.72 4015.34,1262.28 4017.11,1262.91C4018.67,1263.46 4020.21,1264.09 4021.7,1264.79C4023.09,1265.44 4024.41,1266.21 4025.68,1267.09C4027.07,1268.06 4028.29,1269.25 4029.28,1270.62C4030.62,1272.46 4031.36,1274.68 4031.39,1276.96C4031.4,1278.62 4031.01,1280.27 4030.27,1281.77C4029.68,1282.95 4028.93,1284.04 4028.01,1285C4027.23,1285.8 4026.37,1286.53 4025.45,1287.17C4024.55,1287.8 4023.62,1288.36 4022.66,1288.88C4020.57,1289.96 4018.41,1290.9 4016.2,1291.66C4013.59,1292.59 4010.94,1293.4 4008.25,1294.11C4005.08,1294.95 4001.88,1295.71 3998.66,1296.39C3994.94,1297.17 3991.18,1297.88 3987.43,1298.53C3978.45,1300.06 3969.42,1301.34 3960.37,1302.4C3949.53,1303.68 3938.67,1304.76 3927.78,1305.64C3915.37,1306.65 3902.94,1307.49 3890.49,1308.13C3862.07,1309.59 3833.63,1310.31 3805.18,1310.29L3797.15,1310.28L3797.18,1294.24L3805.2,1294.25C3833.37,1294.27 3861.53,1293.56 3889.67,1292.11C3901.95,1291.47 3914.22,1290.65 3926.49,1289.65C3937.17,1288.78 3947.85,1287.72 3958.5,1286.46C3967.27,1285.44 3976.02,1284.19 3984.73,1282.71C3988.3,1282.1 3991.84,1281.43 3995.37,1280.69C3998.32,1280.07 4001.25,1279.37 4004.16,1278.6C4005.82,1278.16 4007.45,1277.68 4009.08,1277.15C4008.53,1276.98 4007.97,1276.82 4007.43,1276.66C4005.62,1276.15 4003.81,1275.69 4001.98,1275.27C3997.39,1274.23 3992.75,1273.33 3988.1,1272.57Z" style="fill-rule:nonzero;"/>
                <path d="M3805.19,1326.76L3813.21,1326.76L3813.21,1342.81L3805.19,1342.81C3787.32,1342.81 3769.47,1342.42 3751.62,1341.62C3734.94,1340.89 3718.29,1339.75 3701.67,1338.23C3686.52,1336.85 3671.41,1335.05 3656.36,1332.85C3649.49,1331.84 3642.62,1330.72 3635.78,1329.48C3629.4,1328.33 3623.05,1327.07 3616.72,1325.69C3610.89,1324.43 3605.09,1323.04 3599.33,1321.51C3594.08,1320.13 3588.87,1318.61 3583.7,1316.94C3579.06,1315.46 3574.47,1313.81 3569.95,1312C3565.94,1310.4 3561.99,1308.61 3558.15,1306.64C3554.75,1304.92 3551.48,1302.96 3548.36,1300.81C3545.54,1298.87 3542.93,1296.65 3540.58,1294.19C3539.47,1293.02 3538.44,1291.77 3537.51,1290.44C3536.6,1289.16 3535.81,1287.79 3535.14,1286.37C3533.75,1283.44 3533.02,1280.26 3533,1277.02C3533.02,1273.62 3533.83,1270.26 3535.37,1267.21C3536.11,1265.72 3536.99,1264.3 3537.98,1262.96C3539,1261.6 3540.11,1260.31 3541.32,1259.11C3542.57,1257.85 3543.88,1256.66 3545.27,1255.56C3546.74,1254.39 3548.26,1253.29 3549.82,1252.25C3553.28,1249.99 3556.89,1247.96 3560.61,1246.17C3564.86,1244.13 3569.19,1242.28 3573.59,1240.63C3578.59,1238.77 3583.64,1237.07 3588.74,1235.54C3594.42,1233.83 3600.15,1232.27 3605.91,1230.87C3612.26,1229.32 3618.63,1227.89 3625.03,1226.62L3632.9,1225.05L3636.04,1240.78L3628.17,1242.36C3622,1243.59 3615.84,1244.95 3609.72,1246.45C3604.23,1247.79 3598.77,1249.27 3593.35,1250.9C3588.59,1252.33 3583.88,1253.92 3579.22,1255.66C3575.26,1257.14 3571.37,1258.81 3567.56,1260.63C3564.47,1262.11 3561.5,1263.79 3558.63,1265.66C3557.48,1266.42 3556.36,1267.24 3555.27,1268.1C3554.37,1268.82 3553.5,1269.61 3552.68,1270.43C3552.01,1271.09 3551.4,1271.81 3550.84,1272.56C3550.41,1273.14 3550.02,1273.75 3549.72,1274.4C3549.3,1275.21 3549.06,1276.12 3549.04,1277.04C3549.06,1277.88 3549.27,1278.73 3549.63,1279.5C3549.91,1280.09 3550.24,1280.65 3550.62,1281.2C3551.11,1281.88 3551.63,1282.53 3552.21,1283.14C3553.8,1284.79 3555.56,1286.29 3557.46,1287.59C3560,1289.36 3562.68,1290.95 3565.43,1292.36C3568.85,1294.1 3572.33,1295.68 3575.89,1297.09C3580.08,1298.77 3584.32,1300.29 3588.61,1301.67C3593.51,1303.25 3598.44,1304.69 3603.41,1306C3608.97,1307.46 3614.53,1308.81 3620.13,1310.02C3626.27,1311.36 3632.43,1312.58 3638.61,1313.69C3645.28,1314.89 3651.98,1315.99 3658.7,1316.97C3673.45,1319.14 3688.28,1320.9 3703.13,1322.25C3719.51,1323.75 3735.9,1324.87 3752.33,1325.59C3769.93,1326.38 3787.56,1326.77 3805.19,1326.76Z" style="fill-rule:nonzero;"/>
                <path d="M3805.18,1294.25L3813.2,1294.24L3813.22,1310.28L3805.2,1310.29C3776.74,1310.31 3748.3,1309.59 3719.88,1308.13C3707.43,1307.49 3695,1306.65 3682.59,1305.64C3671.7,1304.76 3660.85,1303.68 3650,1302.4C3640.95,1301.34 3631.93,1300.06 3622.94,1298.53C3619.19,1297.88 3615.43,1297.17 3611.71,1296.39C3608.49,1295.71 3605.3,1294.95 3602.12,1294.11C3599.43,1293.4 3596.78,1292.59 3594.17,1291.66C3591.96,1290.9 3589.8,1289.96 3587.71,1288.88C3586.75,1288.36 3585.82,1287.8 3584.92,1287.17C3584,1286.53 3583.14,1285.8 3582.37,1285C3581.45,1284.04 3580.69,1282.95 3580.1,1281.77C3579.36,1280.27 3578.98,1278.62 3578.98,1276.96C3579.02,1274.69 3579.76,1272.47 3581.09,1270.62C3582.09,1269.25 3583.31,1268.07 3584.69,1267.1C3585.94,1266.23 3587.26,1265.46 3588.65,1264.81C3590.14,1264.1 3591.67,1263.47 3593.23,1262.92C3595,1262.29 3596.77,1261.73 3598.58,1261.23C3600.62,1260.66 3602.68,1260.13 3604.75,1259.65C3609.67,1258.53 3614.62,1257.56 3619.59,1256.75L3627.52,1255.46L3630.1,1271.3L3622.17,1272.58C3617.53,1273.34 3612.92,1274.24 3608.33,1275.29C3606.52,1275.7 3604.71,1276.16 3602.91,1276.68C3602.36,1276.82 3601.83,1276.98 3601.3,1277.15C3602.92,1277.68 3604.56,1278.16 3606.22,1278.6C3609.12,1279.37 3612.06,1280.07 3615.01,1280.69C3618.53,1281.43 3622.08,1282.1 3625.64,1282.71C3634.36,1284.19 3643.1,1285.44 3651.87,1286.46C3662.52,1287.72 3673.2,1288.78 3683.88,1289.65C3696.15,1290.65 3708.43,1291.47 3720.71,1292.11C3748.84,1293.56 3777,1294.27 3805.18,1294.25Z" style="fill-rule:nonzero;"/>
                <path d="M3972.19,1321.26L3974.24,1313.51L3989.75,1317.62L3987.7,1325.37C3982.41,1345.31 3973.89,1364.23 3962.46,1381.4C3951.18,1398.34 3937.27,1413.36 3921.24,1425.88C3905.08,1438.51 3886.96,1448.42 3867.6,1455.22C3847.54,1462.23 3826.44,1465.81 3805.19,1465.8C3783.97,1465.81 3762.9,1462.25 3742.87,1455.25C3723.54,1448.47 3705.45,1438.6 3689.29,1426C3673.27,1413.52 3659.36,1398.55 3648.09,1381.66C3636.64,1364.54 3628.1,1345.66 3622.78,1325.77L3620.72,1318.02L3636.22,1313.88L3638.28,1321.62C3643.14,1339.82 3650.97,1357.09 3661.42,1372.75C3671.75,1388.21 3684.49,1401.93 3699.16,1413.35C3713.93,1424.87 3730.48,1433.9 3748.16,1440.11C3766.49,1446.5 3785.77,1449.77 3805.19,1449.75C3824.63,1449.77 3843.95,1446.49 3862.3,1440.07C3880,1433.86 3896.57,1424.79 3911.36,1413.23C3926.04,1401.78 3938.79,1388.02 3949.1,1372.52C3959.56,1356.81 3967.36,1339.5 3972.19,1321.26Z" style="fill-rule:nonzero;"/>
            </g>
        </g>
    </g>
</svg>
