<?xml version="1.0" encoding="UTF-8" standalone="no"?>
<!DOCTYPE svg PUBLIC "-//W3C//DTD SVG 1.1//EN" "http://www.w3.org/Graphics/SVG/1.1/DTD/svg11.dtd">
<svg width="100%" height="100%" viewBox="0 0 4501 4501" version="1.1" xmlns="http://www.w3.org/2000/svg" xmlns:xlink="http://www.w3.org/1999/xlink" xml:space="preserve" xmlns:serif="http://www.serif.com/" style="fill-rule:evenodd;clip-rule:evenodd;stroke-linejoin:round;stroke-miterlimit:2;">
    <g transform="matrix(1,0,0,1,-73,-10366)">
        <g id="Artboard11" transform="matrix(1,0,0,1,-45426.8,10366.4)">
            <rect x="45500" y="0" width="4500" height="4500" style="fill:none;"/>
            <g transform="matrix(8.00816,0,0,8.00816,30182.3,-14079)">
                <path d="M2371.13,2004.44L2363.26,2002.87L2366.42,1987.14L2374.29,1988.71C2380.66,1989.99 2387.01,1991.41 2393.32,1992.95C2399.06,1994.36 2404.76,1995.92 2410.42,1997.63C2415.5,1999.15 2420.52,2000.85 2425.49,2002.72C2429.88,2004.37 2434.19,2006.21 2438.42,2008.25C2442.13,2010.02 2445.72,2012.06 2449.16,2014.31C2450.72,2015.35 2452.23,2016.45 2453.69,2017.62C2455.07,2018.72 2456.39,2019.89 2457.64,2021.15C2458.83,2022.36 2459.95,2023.64 2460.95,2025.01C2461.95,2026.34 2462.81,2027.76 2463.56,2029.24C2465.08,2032.28 2465.89,2035.63 2465.91,2039.03C2465.89,2042.27 2465.16,2045.46 2463.77,2048.38C2463.1,2049.8 2462.31,2051.17 2461.4,2052.45C2460.47,2053.78 2459.45,2055.03 2458.33,2056.21C2455.98,2058.66 2453.37,2060.88 2450.55,2062.82C2447.43,2064.98 2444.16,2066.93 2440.76,2068.66C2436.92,2070.62 2432.97,2072.41 2428.96,2074.01C2424.44,2075.82 2419.85,2077.47 2415.21,2078.95C2410.04,2080.62 2404.84,2082.14 2399.58,2083.52C2393.82,2085.05 2388.02,2086.44 2382.2,2087.7C2375.86,2089.08 2369.51,2090.34 2363.13,2091.49C2356.29,2092.73 2349.42,2093.85 2342.55,2094.86C2327.5,2097.06 2312.39,2098.86 2297.24,2100.24C2280.62,2101.77 2263.97,2102.9 2247.28,2103.63C2229.45,2104.43 2211.59,2104.82 2193.73,2104.81L2185.7,2104.81L2185.7,2088.77L2193.73,2088.77C2211.35,2088.78 2228.98,2088.39 2246.58,2087.61C2263.01,2086.88 2279.4,2085.77 2295.78,2084.26C2310.63,2082.91 2325.46,2081.15 2340.22,2078.98C2346.93,2078 2353.62,2076.9 2360.3,2075.7C2366.48,2074.59 2372.64,2073.37 2378.78,2072.03C2384.38,2070.82 2389.95,2069.48 2395.5,2068.01C2400.47,2066.7 2405.4,2065.27 2410.3,2063.68C2414.59,2062.3 2418.84,2060.78 2423.02,2059.11C2426.58,2057.69 2430.07,2056.11 2433.48,2054.37C2436.23,2052.97 2438.91,2051.37 2441.45,2049.61C2443.36,2048.3 2445.11,2046.81 2446.71,2045.15C2447.28,2044.54 2447.81,2043.89 2448.29,2043.21C2448.67,2042.66 2449,2042.1 2449.28,2041.51C2449.65,2040.74 2449.85,2039.89 2449.87,2039.05C2449.85,2038.13 2449.62,2037.23 2449.21,2036.42C2448.89,2035.77 2448.51,2035.16 2448.09,2034.58C2447.53,2033.83 2446.92,2033.12 2446.26,2032.46C2445.45,2031.64 2444.58,2030.87 2443.67,2030.14C2442.6,2029.29 2441.48,2028.47 2440.33,2027.72C2437.49,2025.84 2434.52,2024.18 2431.45,2022.7C2427.67,2020.87 2423.8,2019.21 2419.85,2017.73C2415.22,2015.99 2410.53,2014.41 2405.8,2012.99C2400.41,2011.36 2394.97,2009.88 2389.5,2008.54C2383.4,2007.04 2377.28,2005.67 2371.13,2004.44Z" style="fill-rule:nonzero;"/>
                <path d="M2193.73,2088.77L2201.75,2088.77L2201.75,2104.81L2193.73,2104.81C2175.86,2104.82 2158,2104.43 2140.16,2103.63C2123.48,2102.9 2106.83,2101.77 2090.21,2100.24C2075.06,2098.86 2059.95,2097.06 2044.9,2094.86C2038.03,2093.85 2031.16,2092.73 2024.32,2091.49C2017.94,2090.34 2011.59,2089.08 2005.26,2087.7C1999.43,2086.44 1993.63,2085.05 1987.87,2083.52C1982.62,2082.14 1977.41,2080.62 1972.24,2078.95C1967.6,2077.47 1963.01,2075.82 1958.49,2074.01C1954.48,2072.41 1950.53,2070.62 1946.69,2068.66C1943.29,2066.93 1940.02,2064.98 1936.89,2062.82C1934.08,2060.88 1931.47,2058.66 1929.12,2056.21C1928.01,2055.03 1926.98,2053.78 1926.05,2052.45C1925.14,2051.17 1924.35,2049.8 1923.68,2048.38C1922.29,2045.46 1921.56,2042.27 1921.54,2039.03C1921.56,2035.63 1922.37,2032.27 1923.91,2029.22C1924.65,2027.73 1925.52,2026.31 1926.52,2024.98C1927.54,2023.61 1928.65,2022.32 1929.86,2021.11C1931.11,2019.86 1932.42,2018.68 1933.81,2017.57C1935.28,2016.4 1936.8,2015.3 1938.36,2014.26C1941.82,2012 1945.43,2009.97 1949.15,2008.18C1953.4,2006.14 1957.73,2004.29 1962.13,2002.64C1967.13,2000.79 1972.18,1999.08 1977.28,1997.56C1982.96,1995.84 1988.69,1994.28 1994.45,1992.88C2000.8,1991.33 2007.17,1989.91 2013.57,1988.63L2021.44,1987.06L2024.58,2002.79L2016.71,2004.37C2010.54,2005.6 2004.38,2006.97 1998.26,2008.47C1992.77,2009.8 1987.31,2011.29 1981.89,2012.91C1977.13,2014.34 1972.41,2015.93 1967.76,2017.67C1963.81,2019.16 1959.91,2020.82 1956.1,2022.64C1953.01,2024.12 1950.04,2025.8 1947.17,2027.67C1946.02,2028.43 1944.89,2029.25 1943.81,2030.11C1942.91,2030.84 1942.04,2031.62 1941.22,2032.44C1940.55,2033.11 1939.94,2033.82 1939.38,2034.57C1938.95,2035.15 1938.56,2035.76 1938.25,2036.41C1937.84,2037.22 1937.6,2038.13 1937.58,2039.05C1937.6,2039.89 1937.81,2040.74 1938.17,2041.51C1938.44,2042.1 1938.78,2042.66 1939.16,2043.21C1939.64,2043.89 1940.17,2044.54 1940.75,2045.15C1942.34,2046.81 1944.09,2048.3 1946,2049.61C1948.54,2051.37 1951.22,2052.97 1953.97,2054.37C1957.39,2056.11 1960.87,2057.69 1964.43,2059.11C1968.62,2060.78 1972.86,2062.3 1977.15,2063.68C1982.05,2065.27 1986.98,2066.7 1991.95,2068.01C1997.5,2069.48 2003.07,2070.82 2008.67,2072.03C2014.81,2073.37 2020.97,2074.59 2027.15,2075.7C2033.82,2076.9 2040.52,2078 2047.23,2078.98C2062,2081.15 2076.82,2082.91 2091.67,2084.26C2108.05,2085.77 2124.44,2086.88 2140.87,2087.61C2158.47,2088.39 2176.1,2088.78 2193.73,2088.77Z" style="fill-rule:nonzero;"/>
                <path d="M2004.96,2039.04C2004.94,2013.81 2009.98,1988.84 2019.8,1965.6C2029.31,1943.17 2043.04,1922.8 2060.27,1905.59C2077.48,1888.36 2097.86,1874.62 2120.27,1865.12C2143.51,1855.3 2168.5,1850.25 2193.73,1850.27C2218.95,1850.25 2243.94,1855.3 2267.18,1865.12C2289.59,1874.62 2309.97,1888.36 2327.18,1905.59C2344.41,1922.8 2358.14,1943.17 2367.65,1965.59C2377.47,1988.83 2382.52,2013.81 2382.49,2039.04C2382.52,2064.27 2377.47,2089.25 2367.65,2112.49C2358.14,2134.91 2344.41,2155.28 2327.18,2172.49C2309.97,2189.72 2289.59,2203.45 2267.18,2212.96C2243.94,2222.78 2218.95,2227.83 2193.73,2227.81C2168.5,2227.83 2143.51,2222.78 2120.27,2212.96C2097.86,2203.45 2077.48,2189.72 2060.27,2172.49C2043.04,2155.28 2029.31,2134.91 2019.8,2112.49C2009.98,2089.25 2004.94,2064.27 2004.96,2039.04ZM2021,2039.04C2020.98,2015.96 2025.6,1993.11 2034.58,1971.83C2043.28,1951.32 2055.86,1932.68 2071.62,1916.93C2087.36,1901.17 2106,1888.59 2126.53,1879.9C2147.79,1870.91 2170.64,1866.29 2193.73,1866.32C2216.8,1866.29 2239.66,1870.91 2260.92,1879.9C2281.45,1888.59 2300.09,1901.17 2315.83,1916.93C2331.59,1932.68 2344.17,1951.32 2352.87,1971.84C2361.85,1993.11 2366.47,2015.96 2366.45,2039.04C2366.47,2062.12 2361.85,2084.98 2352.87,2106.24C2344.17,2126.76 2331.59,2145.4 2315.83,2161.14C2300.09,2176.91 2281.45,2189.49 2260.92,2198.18C2239.66,2207.16 2216.8,2211.78 2193.73,2211.77C2170.64,2211.78 2147.79,2207.16 2126.53,2198.18C2106,2189.49 2087.36,2176.91 2071.62,2161.14C2055.86,2145.4 2043.28,2126.76 2034.58,2106.24C2025.6,2084.98 2020.98,2062.12 2021,2039.04Z"/>
                <path d="M2090.43,1896.93L2087.09,1895.23L2090.48,1888.56L2093.81,1890.25C2102.53,1894.67 2111.49,1898.55 2120.68,1901.88C2130.31,1905.38 2140.15,1908.31 2150.13,1910.66C2160.89,1913.2 2171.79,1915.12 2182.77,1916.39C2194.95,1917.8 2207.18,1918.58 2219.44,1918.72C2232.15,1918.86 2244.86,1919.48 2257.53,1920.56C2268.74,1921.51 2279.91,1922.93 2291,1924.83C2300.94,1926.53 2310.8,1928.63 2320.57,1931.16C2329.46,1933.45 2338.23,1936.15 2346.86,1939.27L2350.39,1940.53L2347.85,1947.57L2344.33,1946.31C2335.91,1943.28 2327.36,1940.64 2318.7,1938.41C2309.14,1935.94 2299.48,1933.87 2289.75,1932.21C2278.86,1930.36 2267.89,1928.96 2256.89,1928.02C2244.41,1926.94 2231.89,1926.35 2219.35,1926.21C2206.84,1926.07 2194.34,1925.28 2181.91,1923.82C2170.64,1922.52 2159.46,1920.55 2148.41,1917.95C2138.15,1915.52 2128.03,1912.51 2118.12,1908.91C2108.66,1905.48 2099.41,1901.48 2090.43,1896.93Z" style="fill-rule:nonzero;"/>
                <path d="M2029.26,1963.54L2025.61,1962.71L2027.28,1955.41L2030.93,1956.25C2033.72,1956.88 2036.52,1957.49 2039.32,1958.06C2042.4,1958.69 2045.49,1959.29 2048.58,1959.84C2050.8,1960.25 2053.02,1960.64 2055.25,1961.01C2057.61,1961.41 2059.98,1961.78 2062.36,1962.14C2069.96,1963.31 2077.59,1964.34 2085.23,1965.21C2094.39,1966.26 2103.57,1967.17 2112.74,1967.93C2120.57,1968.56 2128.41,1968.96 2136.26,1969.12C2144.08,1969.31 2151.91,1969.38 2159.73,1969.36L2166.99,1969.36C2169.29,1969.35 2171.59,1969.35 2173.89,1969.35C2180.1,1969.33 2186.3,1969.39 2192.52,1969.53C2195.32,1969.6 2198.13,1969.72 2200.93,1969.86C2203.49,1969.99 2206.05,1970.19 2208.6,1970.44C2210.89,1970.67 2213.17,1970.98 2215.45,1971.36C2217.46,1971.69 2219.45,1972.14 2221.4,1972.71C2223.14,1973.19 2224.83,1973.84 2226.45,1974.64C2227.96,1975.39 2229.35,1976.37 2230.56,1977.53C2232.77,1979.72 2234.58,1982.26 2235.91,1985.06C2237.18,1987.73 2237.86,1990.64 2237.89,1993.6C2237.91,1996.26 2237.28,1998.89 2236.08,2001.25C2234.74,2003.78 2232.83,2005.95 2230.5,2007.59C2229.21,2008.48 2227.84,2009.27 2226.41,2009.89C2224.83,2010.6 2223.18,2011.17 2221.5,2011.6C2219.62,2012.08 2217.69,2012.43 2215.76,2012.64C2213.56,2012.89 2211.36,2013.01 2209.15,2013C2207.49,2013 2205.82,2012.94 2204.16,2012.83C2200.25,2012.56 2196.32,2012.23 2192.42,2011.83C2188.28,2011.41 2184.15,2010.98 2180.02,2010.53C2172.47,2009.67 2164.89,2008.92 2157.31,2008.27C2153.46,2007.95 2149.6,2007.69 2145.73,2007.51C2141.86,2007.32 2138,2007.22 2134.14,2007.22C2127.29,2007.18 2120.43,2007.59 2113.63,2008.42C2110.32,2008.84 2107.04,2009.4 2103.79,2010.1C2100.6,2010.79 2097.46,2011.64 2094.36,2012.66C2091.98,2013.44 2089.59,2014.18 2087.19,2014.91C2084.74,2015.65 2082.28,2016.37 2079.8,2017.05C2070.03,2019.76 2060.13,2022.05 2050.16,2023.92C2039.04,2025.99 2027.86,2027.64 2016.61,2028.86L2012.89,2029.27L2012.09,2021.82L2015.8,2021.41C2026.86,2020.22 2037.86,2018.6 2048.78,2016.56C2058.55,2014.73 2068.23,2012.48 2077.8,2009.83C2080.22,2009.17 2082.64,2008.47 2085.03,2007.75C2087.38,2007.03 2089.7,2006.3 2092.03,2005.53C2095.38,2004.44 2098.77,2003.52 2102.22,2002.79C2105.68,2002.04 2109.18,2001.44 2112.7,2001C2119.82,2000.12 2126.99,1999.69 2134.16,1999.73C2138.14,1999.73 2142.12,1999.83 2146.09,2000.04C2150.05,2000.23 2153.99,2000.48 2157.94,2000.81C2165.59,2001.47 2173.22,2002.22 2180.85,2003.08C2184.96,2003.53 2189.06,2003.97 2193.17,2004.39C2197,2004.77 2200.84,2005.09 2204.68,2005.36C2206.16,2005.46 2207.67,2005.51 2209.17,2005.51C2211.09,2005.52 2213.02,2005.41 2214.93,2005.2C2216.53,2005.02 2218.1,2004.74 2219.66,2004.34C2220.93,2004.01 2222.18,2003.59 2223.38,2003.05C2224.37,2002.61 2225.31,2002.08 2226.18,2001.46C2227.54,2000.52 2228.66,1999.27 2229.44,1997.81C2230.08,1996.53 2230.41,1995.11 2230.41,1993.66C2230.39,1991.8 2229.95,1989.96 2229.15,1988.27C2228.2,1986.27 2226.91,1984.45 2225.34,1982.9C2224.69,1982.27 2223.95,1981.76 2223.14,1981.36C2221.93,1980.76 2220.66,1980.27 2219.36,1979.91C2217.66,1979.43 2215.94,1979.03 2214.2,1978.74C2212.1,1978.39 2209.98,1978.1 2207.86,1977.89C2205.43,1977.65 2202.98,1977.47 2200.53,1977.34C2197.8,1977.19 2195.07,1977.09 2192.34,1977.02C2186.2,1976.88 2180.05,1976.82 2173.9,1976.84C2171.6,1976.84 2169.31,1976.84 2167.01,1976.85L2159.75,1976.85C2151.86,1976.87 2143.97,1976.8 2136.09,1976.61C2128.1,1976.43 2120.11,1976.02 2112.14,1975.39C2102.87,1974.62 2093.62,1973.72 2084.38,1972.64C2076.64,1971.76 2068.93,1970.73 2061.22,1969.54C2058.82,1969.18 2056.41,1968.8 2054.02,1968.39C2051.75,1968.02 2049.49,1967.62 2047.25,1967.21C2044.1,1966.64 2040.96,1966.04 2037.82,1965.39C2034.97,1964.82 2032.1,1964.19 2029.26,1963.54Z" style="fill-rule:nonzero;"/>
                <path d="M2307.93,2051.28C2306.44,2052.05 2304.92,2052.73 2303.36,2053.33C2301.35,2054.11 2299.3,2054.85 2297.24,2055.53C2292.03,2057.27 2286.76,2058.82 2281.45,2060.2C2275.61,2061.72 2269.7,2063.05 2263.77,2064.15C2260.97,2064.68 2258.14,2065.12 2255.31,2065.49C2252.75,2065.83 2250.17,2066.07 2247.61,2066.2C2246.23,2066.26 2244.86,2066.28 2243.49,2066.28C2239.4,2066.3 2235.33,2065.99 2231.3,2065.35C2227.52,2064.75 2223.81,2063.79 2220.23,2062.47C2216.78,2061.2 2213.49,2059.55 2210.42,2057.54C2207.37,2055.55 2204.58,2053.21 2202.08,2050.57C2201.38,2049.85 2200.76,2049.06 2200.25,2048.21C2199.64,2047.24 2199.31,2046.13 2199.27,2045C2199.24,2043.98 2199.52,2042.98 2200.06,2042.11C2200.52,2041.39 2201.14,2040.78 2201.86,2040.34C2202.44,2039.97 2203.05,2039.68 2203.69,2039.48C2204.3,2039.28 2204.93,2039.11 2205.57,2039C2206.93,2038.76 2208.31,2038.61 2209.7,2038.56C2211.32,2038.48 2212.95,2038.45 2214.56,2038.46C2216.47,2038.46 2218.36,2038.48 2220.25,2038.52C2222.53,2038.55 2224.8,2038.57 2227.08,2038.58C2231.04,2038.6 2234.99,2038.46 2238.93,2038.15C2240.8,2037.99 2242.68,2037.77 2244.53,2037.46C2246.25,2037.18 2247.94,2036.81 2249.61,2036.32C2251.43,2035.79 2253.27,2035.34 2255.14,2034.97C2257.22,2034.55 2259.32,2034.21 2261.43,2033.94C2262.98,2033.75 2264.55,2033.6 2266.12,2033.48C2267.83,2033.35 2269.54,2033.25 2271.27,2033.21C2272.5,2033.17 2273.76,2033.16 2275.01,2033.16C2276.34,2033.16 2277.67,2033.18 2279.01,2033.22C2283.21,2033.35 2287.41,2033.64 2291.6,2034.09C2296.84,2034.66 2302.05,2035.39 2307.24,2036.3C2308.12,2036.66 2308.97,2037.08 2309.79,2037.56C2310.34,2037.88 2310.87,2038.24 2311.36,2038.64C2311.72,2038.93 2312.05,2039.25 2312.37,2039.6C2312.68,2039.93 2312.94,2040.3 2313.18,2040.69C2313.46,2041.16 2313.67,2041.65 2313.82,2042.16C2313.98,2042.7 2314.05,2043.25 2314.04,2043.81C2314.03,2044.34 2313.96,2044.87 2313.81,2045.37C2313.66,2045.86 2313.47,2046.33 2313.21,2046.77C2313,2047.15 2312.75,2047.5 2312.47,2047.83C2312.18,2048.17 2311.88,2048.5 2311.55,2048.8C2311.07,2049.24 2310.57,2049.65 2310.03,2050.01C2309.35,2050.46 2308.64,2050.89 2307.93,2051.28ZM2208.25,2046.18C2208.84,2046.11 2209.44,2046.07 2210.02,2046.04C2211.52,2045.97 2213.03,2045.94 2214.54,2045.95C2216.4,2045.95 2218.26,2045.97 2220.12,2046C2222.43,2046.04 2224.74,2046.06 2227.05,2046.07C2231.21,2046.09 2235.38,2045.94 2239.53,2045.61C2241.62,2045.44 2243.68,2045.18 2245.75,2044.85C2247.75,2044.52 2249.73,2044.08 2251.68,2043.51C2253.31,2043.04 2254.95,2042.63 2256.61,2042.3C2258.52,2041.92 2260.42,2041.61 2262.34,2041.37C2263.79,2041.19 2265.22,2041.05 2266.66,2040.94C2268.27,2040.83 2269.88,2040.74 2271.48,2040.7C2272.66,2040.66 2273.82,2040.64 2275,2040.64C2276.26,2040.64 2277.52,2040.66 2278.78,2040.71C2282.79,2040.83 2286.79,2041.09 2290.78,2041.53C2295.56,2042.05 2300.32,2042.72 2305.06,2043.52C2305.3,2043.64 2305.52,2043.75 2305.75,2043.88C2305.32,2044.15 2304.88,2044.42 2304.43,2044.66C2303.22,2045.29 2301.97,2045.84 2300.7,2046.33C2298.76,2047.08 2296.84,2047.79 2294.88,2048.43C2289.83,2050.11 2284.72,2051.62 2279.55,2052.95C2273.88,2054.44 2268.16,2055.72 2262.4,2056.79C2259.72,2057.28 2257.03,2057.72 2254.32,2058.07C2251.98,2058.39 2249.62,2058.6 2247.25,2058.72C2245.99,2058.77 2244.73,2058.79 2243.47,2058.79C2239.79,2058.82 2236.1,2058.53 2232.46,2057.96C2229.17,2057.43 2225.94,2056.59 2222.82,2055.45C2219.89,2054.37 2217.12,2052.98 2214.52,2051.28C2212.25,2049.8 2210.15,2048.09 2208.25,2046.18Z"/>
                <path d="M2225.19,2172.47C2225.23,2172.5 2225.27,2172.53 2225.31,2172.56C2225.65,2172.79 2226.02,2172.98 2226.42,2173.12C2227.46,2173.48 2228.52,2173.77 2229.6,2173.96C2230.73,2174.16 2231.86,2174.31 2233.01,2174.42C2234.78,2174.57 2236.57,2174.66 2238.34,2174.71C2239.76,2174.74 2241.16,2174.74 2242.57,2174.73C2244.37,2174.7 2246.15,2174.64 2247.95,2174.57C2251.73,2174.41 2255.52,2174.15 2259.31,2173.82C2264.8,2173.34 2270.29,2172.76 2275.77,2172.1C2280.17,2171.57 2284.57,2171 2288.97,2170.39C2294.47,2169.62 2299.96,2168.81 2305.45,2167.96L2309.14,2167.39L2310.29,2174.78L2306.6,2175.36C2301.07,2176.22 2295.54,2177.03 2290,2177.8C2285.56,2178.42 2281.11,2179 2276.65,2179.53C2271.1,2180.2 2265.54,2180.78 2259.97,2181.27C2256.08,2181.62 2252.17,2181.88 2248.27,2182.04C2246.41,2182.13 2244.53,2182.18 2242.68,2182.2C2241.18,2182.23 2239.68,2182.23 2238.18,2182.19C2236.24,2182.15 2234.3,2182.04 2232.37,2181.87C2230.99,2181.75 2229.62,2181.57 2228.26,2181.33C2226.8,2181.06 2225.36,2180.68 2223.96,2180.19C2222.93,2179.84 2221.96,2179.35 2221.07,2178.73C2220.43,2178.29 2219.84,2177.77 2219.33,2177.18C2218.83,2176.59 2218.42,2175.93 2218.14,2175.2C2217.85,2174.49 2217.7,2173.75 2217.67,2172.98C2217.64,2172.23 2217.72,2171.46 2217.91,2170.72C2218.69,2167.72 2219.79,2164.81 2221.18,2162.04C2222.3,2159.82 2223.53,2157.65 2224.84,2155.53C2225.55,2154.39 2226.23,2153.21 2226.85,2152C2226.95,2151.8 2227.04,2151.59 2227.12,2151.39C2226.72,2151.22 2226.31,2151.08 2225.89,2150.95C2225,2150.66 2224.1,2150.42 2223.19,2150.2C2220.56,2149.54 2217.91,2149.02 2215.23,2148.61C2211.68,2148.05 2208.11,2147.64 2204.53,2147.35C2200.28,2147.01 2196.02,2146.84 2191.76,2146.84C2186.3,2146.84 2180.86,2147.12 2175.44,2147.7C2169.65,2148.32 2163.91,2149.32 2158.25,2150.7C2157.53,2150.88 2156.8,2151.04 2156.08,2151.19C2155.31,2151.35 2154.53,2151.49 2153.75,2151.63C2151.31,2152.03 2148.86,2152.33 2146.39,2152.5C2143.36,2152.72 2140.32,2152.82 2137.28,2152.8C2134.29,2152.79 2131.29,2152.69 2128.29,2152.48C2124.68,2152.24 2121.06,2151.91 2117.46,2151.48C2114.85,2151.18 2112.24,2150.82 2109.64,2150.44C2106.7,2150 2103.76,2149.52 2100.83,2149C2098.73,2148.62 2096.64,2148.23 2094.55,2147.82C2092.28,2147.38 2090.02,2146.91 2087.75,2146.43C2080.87,2144.97 2074.03,2143.36 2067.22,2141.61C2058.73,2139.41 2050.28,2137.08 2041.87,2134.61L2038.27,2133.55L2040.39,2126.37L2043.98,2127.42C2052.32,2129.88 2060.68,2132.18 2069.09,2134.36C2075.8,2136.08 2082.54,2137.67 2089.31,2139.11C2091.53,2139.59 2093.76,2140.03 2095.98,2140.47C2098.03,2140.88 2100.08,2141.26 2102.13,2141.63C2105,2142.13 2107.88,2142.6 2110.75,2143.03C2113.27,2143.41 2115.8,2143.75 2118.34,2144.04C2121.81,2144.46 2125.3,2144.78 2128.8,2145.02C2131.63,2145.2 2134.48,2145.3 2137.33,2145.32C2140.18,2145.34 2143.02,2145.24 2145.86,2145.04C2148.08,2144.88 2150.29,2144.61 2152.5,2144.24C2153.19,2144.13 2153.89,2143.99 2154.57,2143.85C2155.21,2143.72 2155.84,2143.59 2156.47,2143.42C2162.45,2141.97 2168.52,2140.91 2174.64,2140.26C2180.32,2139.65 2186.05,2139.35 2191.77,2139.35C2196.22,2139.35 2200.68,2139.53 2205.12,2139.88C2208.89,2140.18 2212.64,2140.63 2216.38,2141.21C2219.27,2141.66 2222.13,2142.23 2224.98,2142.92C2226.03,2143.18 2227.08,2143.48 2228.12,2143.81C2228.93,2144.05 2229.72,2144.34 2230.5,2144.69C2231.69,2145.19 2232.74,2145.98 2233.54,2147C2234.39,2148.1 2234.82,2149.46 2234.8,2150.85C2234.79,2151.68 2234.64,2152.52 2234.39,2153.3C2234.15,2154.02 2233.86,2154.73 2233.52,2155.4C2232.8,2156.79 2232.02,2158.16 2231.19,2159.49C2230,2161.41 2228.89,2163.39 2227.86,2165.41C2226.73,2167.67 2225.83,2170.03 2225.19,2172.47Z" style="fill-rule:nonzero;"/>
            </g>
        </g>
    </g>
</svg>
