<?xml version="1.0" encoding="UTF-8" standalone="no"?>
<!DOCTYPE svg PUBLIC "-//W3C//DTD SVG 1.1//EN" "http://www.w3.org/Graphics/SVG/1.1/DTD/svg11.dtd">
<svg width="100%" height="100%" viewBox="0 0 4501 4501" version="1.1" xmlns="http://www.w3.org/2000/svg" xmlns:xlink="http://www.w3.org/1999/xlink" xml:space="preserve" xmlns:serif="http://www.serif.com/" style="fill-rule:evenodd;clip-rule:evenodd;stroke-linejoin:round;stroke-miterlimit:2;">
    <g transform="matrix(1,0,0,1,-13723,-10366)">
        <g id="Artboard14" transform="matrix(1,0,0,1,-45426.8,10366.4)">
            <rect x="59150" y="0" width="4500" height="4500" style="fill:none;"/>
            <g transform="matrix(8.00816,0,0,8.00816,43832.3,-7976.65)">
                <path d="M2004.96,1277.03C2004.94,1251.8 2009.98,1226.82 2019.8,1203.59C2029.31,1181.16 2043.04,1160.79 2060.27,1143.57C2077.48,1126.35 2097.86,1112.61 2120.27,1103.11C2143.51,1093.29 2168.5,1088.24 2193.73,1088.26C2218.95,1088.24 2243.94,1093.29 2267.18,1103.11C2289.59,1112.61 2309.97,1126.35 2327.18,1143.57C2344.41,1160.79 2358.14,1181.16 2367.65,1203.57C2377.47,1226.82 2382.52,1251.8 2382.49,1277.03C2382.52,1302.26 2377.47,1327.24 2367.65,1350.48C2358.14,1372.9 2344.41,1393.27 2327.18,1410.48C2309.97,1427.71 2289.59,1441.44 2267.18,1450.95C2243.94,1460.77 2218.95,1465.82 2193.73,1465.8C2168.5,1465.82 2143.51,1460.77 2120.27,1450.95C2097.86,1441.44 2077.48,1427.71 2060.27,1410.48C2043.04,1393.27 2029.31,1372.9 2019.8,1350.48C2009.98,1327.24 2004.94,1302.26 2004.96,1277.03ZM2021,1277.03C2020.98,1253.95 2025.6,1231.09 2034.58,1209.82C2043.28,1189.31 2055.86,1170.66 2071.62,1154.92C2087.36,1139.16 2106,1126.58 2126.53,1117.89C2147.79,1108.9 2170.64,1104.28 2193.73,1104.31C2216.8,1104.28 2239.66,1108.9 2260.92,1117.89C2281.45,1126.58 2300.09,1139.16 2315.83,1154.92C2331.59,1170.66 2344.17,1189.31 2352.87,1209.83C2361.85,1231.09 2366.47,1253.95 2366.45,1277.03C2366.47,1300.11 2361.85,1322.96 2352.87,1344.23C2344.17,1364.75 2331.59,1383.39 2315.83,1399.13C2300.09,1414.9 2281.45,1427.48 2260.92,1436.17C2239.66,1445.16 2216.8,1449.77 2193.73,1449.75C2170.64,1449.77 2147.79,1445.16 2126.53,1436.17C2106,1427.48 2087.36,1414.9 2071.62,1399.13C2055.86,1383.39 2043.28,1364.75 2034.58,1344.23C2025.6,1322.96 2020.98,1300.11 2021,1277.03Z"/>
                <path d="M2014.65,1260.12L2011.23,1258.58L2014.32,1251.76L2017.73,1253.3C2023.22,1255.78 2028.83,1257.96 2034.55,1259.84C2039.81,1261.57 2045.16,1263.01 2050.58,1264.12C2055.71,1265.18 2060.89,1265.95 2066.1,1266.41C2071.16,1266.87 2076.23,1267.02 2081.31,1266.87C2082.89,1266.82 2084.48,1266.61 2086.03,1266.28C2087.84,1265.88 2089.63,1265.4 2091.38,1264.82C2093.36,1264.17 2095.33,1263.47 2097.28,1262.69C2099.41,1261.86 2101.52,1261.02 2103.64,1260.14C2106.62,1258.91 2109.63,1257.71 2112.64,1256.56C2115.86,1255.34 2119.12,1254.23 2122.4,1253.25C2125.84,1252.23 2129.35,1251.4 2132.89,1250.81C2136.59,1250.17 2140.35,1249.85 2144.1,1249.84C2150.85,1249.84 2157.55,1250.96 2163.93,1253.17C2171.44,1255.77 2178.93,1258.39 2186.42,1261.06C2190.77,1262.63 2195.16,1264.16 2199.54,1265.63C2202.61,1266.65 2205.73,1267.54 2208.87,1268.3C2212.36,1269.09 2215.88,1269.77 2219.4,1270.3C2224.97,1271.16 2230.53,1271.97 2236.1,1272.74L2240.24,1273.32C2250.72,1274.79 2261.3,1275.52 2271.88,1275.5C2280.36,1275.51 2288.82,1275.05 2297.23,1274.14C2305.83,1273.22 2314.36,1271.8 2322.78,1269.86C2331.2,1267.94 2339.48,1265.43 2347.55,1262.36C2355.52,1259.33 2363.22,1255.65 2370.58,1251.35L2373.81,1249.46L2377.59,1255.93L2374.36,1257.81C2366.64,1262.32 2358.57,1266.18 2350.22,1269.35C2341.82,1272.55 2333.21,1275.16 2324.45,1277.16C2315.75,1279.16 2306.92,1280.63 2298.03,1281.59C2289.35,1282.53 2280.62,1283 2271.89,1282.98C2260.95,1283.01 2250.02,1282.26 2239.19,1280.74L2235.06,1280.15C2229.46,1279.38 2223.86,1278.56 2218.28,1277.7C2214.55,1277.14 2210.84,1276.43 2207.16,1275.59C2203.79,1274.78 2200.45,1273.83 2197.17,1272.73C2192.73,1271.24 2188.3,1269.7 2183.9,1268.11C2176.44,1265.44 2168.97,1262.82 2161.49,1260.25C2155.9,1258.32 2150.02,1257.34 2144.11,1257.33C2140.77,1257.34 2137.44,1257.63 2134.14,1258.18C2130.9,1258.74 2127.7,1259.48 2124.54,1260.42C2121.43,1261.35 2118.36,1262.4 2115.32,1263.56C2112.37,1264.69 2109.42,1265.85 2106.5,1267.06C2104.34,1267.95 2102.18,1268.82 2100,1269.67C2097.94,1270.48 2095.84,1271.23 2093.73,1271.93C2091.72,1272.6 2089.67,1273.16 2087.61,1273.59C2085.61,1274.02 2083.59,1274.28 2081.54,1274.36C2076.18,1274.5 2070.8,1274.34 2065.44,1273.88C2059.94,1273.38 2054.48,1272.57 2049.06,1271.46C2043.36,1270.28 2037.74,1268.77 2032.21,1266.95C2026.24,1264.98 2020.38,1262.71 2014.65,1260.12Z" style="fill-rule:nonzero;"/>
                <path d="M2371.7,1275.83L2375.03,1274.13L2378.44,1280.79L2375.1,1282.5C2373.21,1283.46 2371.24,1284.28 2369.21,1284.93C2366.71,1285.77 2364.16,1286.49 2361.59,1287.1C2358.56,1287.84 2355.5,1288.5 2352.42,1289.07C2348.94,1289.72 2345.46,1290.3 2341.96,1290.82C2334.12,1291.95 2326.25,1292.82 2318.36,1293.44C2310,1294.12 2301.64,1294.54 2293.27,1294.68C2288.15,1294.78 2283.04,1295.14 2277.96,1295.75C2272.37,1296.41 2266.78,1297.24 2261.22,1298.25C2255.24,1299.32 2249.28,1300.48 2243.34,1301.73C2237.08,1303.06 2230.83,1304.42 2224.58,1305.81C2216.08,1307.7 2207.54,1309.53 2199.01,1311.3C2190.35,1313.08 2181.65,1314.65 2172.91,1316.02C2168.14,1316.76 2163.32,1317.14 2158.5,1317.16C2153.79,1317.16 2149.09,1316.77 2144.47,1315.99C2140.26,1315.29 2136.11,1314.28 2132.06,1312.98C2128.29,1311.78 2124.59,1310.4 2120.97,1308.85C2117.58,1307.39 2114.21,1305.87 2110.86,1304.3C2108.36,1303.12 2105.83,1301.99 2103.31,1300.87C2100.89,1299.81 2098.44,1298.82 2095.96,1297.93C2093.57,1297.07 2091.13,1296.36 2088.66,1295.78C2086.2,1295.21 2083.7,1294.84 2081.17,1294.66C2078.77,1294.5 2076.35,1294.31 2073.94,1294.08C2071.27,1293.82 2068.59,1293.52 2065.92,1293.19C2064.02,1292.94 2062.1,1292.69 2060.2,1292.42C2058.16,1292.13 2056.1,1291.82 2054.07,1291.49C2047.71,1290.47 2041.38,1289.31 2035.07,1288C2027.38,1286.41 2019.72,1284.68 2012.08,1282.81L2008.45,1281.91L2010.24,1274.64L2013.88,1275.53C2021.41,1277.38 2028.99,1279.1 2036.58,1280.68C2042.79,1281.96 2049,1283.09 2055.25,1284.1C2057.25,1284.42 2059.26,1284.72 2061.26,1285.01C2063.12,1285.27 2064.99,1285.52 2066.85,1285.75C2069.45,1286.09 2072.06,1286.38 2074.67,1286.62C2077,1286.85 2079.34,1287.04 2081.68,1287.2C2084.59,1287.4 2087.49,1287.83 2090.34,1288.48C2093.11,1289.12 2095.82,1289.93 2098.5,1290.89C2101.14,1291.84 2103.76,1292.89 2106.32,1294.02C2108.91,1295.16 2111.48,1296.32 2114.03,1297.52C2117.31,1299.06 2120.6,1300.54 2123.92,1301.96C2127.33,1303.43 2130.8,1304.72 2134.34,1305.85C2138.06,1307.04 2141.86,1307.96 2145.7,1308.61C2149.93,1309.32 2154.2,1309.67 2158.48,1309.67C2162.92,1309.66 2167.36,1309.31 2171.76,1308.62C2180.38,1307.27 2188.96,1305.72 2197.5,1303.96C2205.99,1302.2 2214.48,1300.39 2222.95,1298.49C2229.23,1297.1 2235.51,1295.75 2241.79,1294.42C2247.81,1293.14 2253.85,1291.96 2259.91,1290.88C2265.61,1289.85 2271.33,1289 2277.08,1288.31C2282.41,1287.68 2287.75,1287.3 2293.11,1287.19C2301.34,1287.05 2309.56,1286.64 2317.75,1285.98C2325.49,1285.37 2333.2,1284.52 2340.88,1283.4C2344.28,1282.91 2347.67,1282.34 2351.05,1281.71C2354,1281.17 2356.93,1280.54 2359.84,1279.83C2362.22,1279.27 2364.57,1278.59 2366.89,1277.82C2368.55,1277.29 2370.15,1276.62 2371.7,1275.83Z" style="fill-rule:nonzero;"/>
                <path d="M2357.38,1208.75L2359.35,1205.56L2365.72,1209.5L2363.75,1212.69C2362.86,1214.13 2361.83,1215.48 2360.66,1216.72C2359.22,1218.26 2357.67,1219.7 2356.01,1221.01C2354.76,1222 2353.47,1222.94 2352.13,1223.82C2350.52,1224.88 2348.87,1225.88 2347.19,1226.82C2345.96,1227.52 2344.72,1228.18 2343.46,1228.82C2342.02,1229.54 2340.57,1230.25 2339.1,1230.92C2338.05,1231.4 2337.01,1231.88 2335.95,1232.32C2334.78,1232.82 2333.62,1233.32 2332.45,1233.79C2328.95,1235.21 2325.41,1236.53 2321.85,1237.76C2317.32,1239.31 2312.74,1240.76 2308.14,1242.12C2302.15,1243.86 2296.03,1245.1 2289.83,1245.84C2283.51,1246.61 2277.14,1246.98 2270.78,1246.95C2262.71,1246.93 2254.64,1246.45 2246.62,1245.53C2238.78,1244.64 2230.98,1243.47 2223.22,1241.99C2216,1240.62 2208.82,1239.09 2201.66,1237.39C2195.46,1235.91 2189.27,1234.38 2183.08,1232.79C2179.92,1231.97 2176.76,1231.18 2173.59,1230.4C2169.97,1229.53 2166.3,1228.91 2162.6,1228.56C2158.67,1228.16 2154.71,1227.98 2150.75,1227.99C2146.5,1228 2142.24,1228.17 2138,1228.5C2133.63,1228.82 2129.27,1229.25 2124.91,1229.8C2120.53,1230.34 2116.14,1230.95 2111.77,1231.63C2107.46,1232.29 2103.15,1232.98 2098.84,1233.68C2095.21,1234.27 2091.6,1234.85 2087.98,1235.41C2084.54,1235.95 2081.09,1236.44 2077.63,1236.89C2072.61,1237.53 2067.55,1237.88 2062.5,1237.93C2057.61,1237.97 2052.71,1237.71 2047.84,1237.16C2043,1236.6 2038.2,1235.76 2033.46,1234.62C2028.61,1233.46 2023.84,1232 2019.16,1230.27L2015.65,1228.98L2018.25,1221.95L2021.77,1223.25C2026.16,1224.88 2030.65,1226.25 2035.22,1227.34C2039.65,1228.41 2044.16,1229.2 2048.69,1229.72C2053.26,1230.24 2057.84,1230.47 2062.43,1230.44C2067.19,1230.4 2071.95,1230.07 2076.67,1229.47C2080.06,1229.03 2083.45,1228.55 2086.83,1228.01C2090.43,1227.46 2094.03,1226.88 2097.63,1226.29C2101.96,1225.59 2106.29,1224.9 2110.64,1224.23C2115.07,1223.54 2119.53,1222.92 2123.99,1222.37C2128.47,1221.81 2132.95,1221.36 2137.44,1221.03C2141.86,1220.69 2146.29,1220.52 2150.73,1220.5C2154.93,1220.5 2159.15,1220.69 2163.33,1221.11C2167.38,1221.5 2171.41,1222.17 2175.36,1223.12C2178.56,1223.92 2181.76,1224.72 2184.95,1225.53C2191.08,1227.11 2197.23,1228.63 2203.39,1230.11C2210.43,1231.78 2217.51,1233.29 2224.61,1234.63C2232.18,1236.08 2239.81,1237.23 2247.47,1238.1C2255.21,1238.99 2263.01,1239.44 2270.8,1239.47C2276.87,1239.49 2282.92,1239.14 2288.94,1238.41C2294.73,1237.72 2300.45,1236.56 2306.04,1234.93C2310.53,1233.61 2315,1232.18 2319.42,1230.66C2322.86,1229.49 2326.27,1228.21 2329.64,1226.85C2330.76,1226.4 2331.87,1225.93 2332.98,1225.46C2333.99,1225.02 2334.98,1224.58 2335.98,1224.12C2337.36,1223.49 2338.72,1222.83 2340.08,1222.14C2341.23,1221.56 2342.39,1220.94 2343.52,1220.3C2345.05,1219.44 2346.55,1218.53 2348.01,1217.56C2349.17,1216.81 2350.28,1216 2351.36,1215.15C2352.73,1214.06 2354.01,1212.88 2355.2,1211.61C2356.02,1210.73 2356.75,1209.77 2357.38,1208.75Z" style="fill-rule:nonzero;"/>
                <path d="M2328.36,1159.83L2330.04,1156.5L2336.72,1159.88L2335.03,1163.21C2334.27,1164.71 2333.3,1166.1 2332.17,1167.34C2331.01,1168.6 2329.72,1169.75 2328.31,1170.74C2326.81,1171.8 2325.24,1172.75 2323.61,1173.59C2321.81,1174.5 2319.98,1175.32 2318.11,1176.06C2316.04,1176.87 2313.96,1177.62 2311.84,1178.3C2309.51,1179.06 2307.16,1179.78 2304.8,1180.45C2299.39,1181.99 2293.96,1183.46 2288.5,1184.85C2285.04,1185.76 2281.56,1186.68 2278.1,1187.6C2274.11,1188.64 2270.05,1189.37 2265.94,1189.79C2261.47,1190.26 2256.97,1190.47 2252.47,1190.46C2244.91,1190.43 2237.36,1189.95 2229.86,1189.03C2222.22,1188.12 2214.61,1186.86 2207.07,1185.25C2199.98,1183.77 2192.97,1181.96 2186.03,1179.85C2182.92,1178.9 2179.84,1177.86 2176.78,1176.75C2174.05,1175.76 2171.33,1174.68 2168.67,1173.49C2165.45,1172.04 2162.1,1170.89 2158.67,1170.09C2155.93,1169.48 2153.13,1169.17 2150.31,1169.17C2147.92,1169.19 2145.53,1169.37 2143.16,1169.73C2140.58,1170.12 2138,1170.57 2135.45,1171.08C2131.64,1171.84 2127.81,1172.48 2123.97,1173.02C2119.19,1173.65 2114.37,1173.96 2109.54,1173.96C2107.6,1173.96 2105.65,1173.92 2103.7,1173.82C2098.82,1173.57 2093.95,1173.06 2089.12,1172.28C2085.63,1171.71 2082.18,1170.87 2078.82,1169.76C2076.45,1168.96 2074.14,1168 2071.92,1166.88C2070.09,1165.95 2068.35,1164.84 2066.71,1163.57C2065.31,1162.48 2064,1161.27 2062.84,1159.93C2061.74,1158.68 2060.78,1157.31 2059.97,1155.85L2058.16,1152.58L2064.7,1148.94L2066.52,1152.22C2067.06,1153.21 2067.73,1154.14 2068.48,1155C2069.33,1155.97 2070.27,1156.87 2071.3,1157.66C2072.55,1158.63 2073.9,1159.48 2075.31,1160.21C2077.2,1161.16 2079.16,1161.98 2081.17,1162.64C2084.15,1163.64 2087.22,1164.39 2090.32,1164.89C2094.87,1165.63 2099.47,1166.11 2104.07,1166.34C2105.9,1166.43 2107.72,1166.47 2109.54,1166.47C2114.03,1166.47 2118.52,1166.18 2122.97,1165.6C2126.66,1165.08 2130.32,1164.46 2133.98,1163.73C2136.66,1163.2 2139.35,1162.73 2142.05,1162.32C2144.77,1161.92 2147.53,1161.7 2150.29,1161.68C2153.67,1161.68 2157.03,1162.06 2160.32,1162.79C2164.25,1163.7 2168.07,1165 2171.73,1166.67C2174.23,1167.77 2176.77,1168.79 2179.34,1169.71C2182.27,1170.79 2185.23,1171.78 2188.23,1172.69C2194.95,1174.74 2201.75,1176.48 2208.62,1177.93C2215.94,1179.49 2223.33,1180.71 2230.76,1181.6C2237.97,1182.48 2245.23,1182.94 2252.5,1182.98C2256.73,1182.99 2260.97,1182.79 2265.18,1182.34C2268.89,1181.97 2272.58,1181.31 2276.2,1180.37C2279.67,1179.44 2283.14,1178.52 2286.63,1177.61C2292.02,1176.21 2297.4,1174.77 2302.75,1173.25C2305.03,1172.6 2307.28,1171.92 2309.53,1171.18C2311.5,1170.55 2313.45,1169.84 2315.37,1169.08C2317.02,1168.44 2318.63,1167.71 2320.2,1166.91C2321.52,1166.24 2322.78,1165.48 2323.98,1164.63C2324.95,1163.94 2325.85,1163.16 2326.66,1162.27C2327.34,1161.54 2327.91,1160.72 2328.36,1159.83Z" style="fill-rule:nonzero;"/>
                <path d="M2300.84,1126.26L2304.01,1124.28L2307.97,1130.63L2304.79,1132.61C2304.3,1132.92 2303.78,1133.2 2303.23,1133.44C2302.62,1133.7 2301.99,1133.96 2301.36,1134.19C2299.69,1134.81 2297.99,1135.36 2296.28,1135.86C2291.47,1137.27 2286.59,1138.48 2281.68,1139.51C2275.67,1140.8 2269.61,1141.83 2263.52,1142.63C2260.38,1143.04 2257.22,1143.37 2254.05,1143.61C2251,1143.84 2247.93,1143.96 2244.86,1143.97C2241.63,1143.99 2238.4,1143.8 2235.19,1143.43C2233.72,1143.23 2232.24,1142.99 2230.78,1142.67C2229.4,1142.37 2228.05,1141.99 2226.72,1141.52C2225.37,1141.06 2224,1140.67 2222.62,1140.37C2221.09,1140.02 2219.54,1139.76 2217.99,1139.57C2214.47,1139.14 2210.93,1138.93 2207.39,1138.96C2204.03,1138.96 2200.67,1139.09 2197.31,1139.33C2193.76,1139.57 2190.2,1139.91 2186.66,1140.31C2183.01,1140.72 2179.36,1141.18 2175.73,1141.68C2172.11,1142.18 2168.48,1142.69 2164.86,1143.22C2161.25,1143.75 2157.63,1144.26 2154.02,1144.76C2150.63,1145.22 2147.25,1145.64 2143.84,1145.99C2139.43,1146.45 2134.97,1146.52 2130.53,1146.21C2126.2,1145.9 2121.91,1145.21 2117.7,1144.14C2113.34,1143.03 2109.09,1141.54 2105.01,1139.68C2100.55,1137.65 2096.26,1135.27 2092.19,1132.55L2089.07,1130.47L2093.22,1124.25L2096.34,1126.32C2100.08,1128.82 2104.02,1131.01 2108.11,1132.87C2111.79,1134.54 2115.62,1135.89 2119.54,1136.88C2123.32,1137.84 2127.17,1138.46 2131.06,1138.74C2135.06,1139.02 2139.09,1138.96 2143.07,1138.55C2146.39,1138.19 2149.7,1137.8 2153,1137.34C2156.59,1136.85 2160.18,1136.34 2163.78,1135.81C2167.41,1135.29 2171.06,1134.76 2174.71,1134.26C2178.4,1133.76 2182.1,1133.29 2185.81,1132.87C2189.46,1132.45 2193.12,1132.12 2196.78,1131.86C2200.3,1131.61 2203.83,1131.48 2207.36,1131.47C2211.22,1131.45 2215.07,1131.67 2218.91,1132.13C2220.7,1132.36 2222.47,1132.67 2224.23,1133.05C2225.91,1133.43 2227.57,1133.9 2229.18,1134.46C2230.23,1134.82 2231.28,1135.12 2232.37,1135.35C2233.6,1135.62 2234.85,1135.83 2236.1,1135.99C2239,1136.34 2241.91,1136.5 2244.82,1136.48C2247.72,1136.47 2250.61,1136.36 2253.49,1136.14C2256.52,1135.91 2259.54,1135.6 2262.55,1135.21C2268.45,1134.44 2274.31,1133.43 2280.13,1132.19C2284.86,1131.2 2289.55,1130.02 2294.2,1128.68C2295.73,1128.22 2297.26,1127.71 2298.78,1127.17C2299.27,1126.99 2299.75,1126.79 2300.23,1126.57C2300.44,1126.48 2300.64,1126.38 2300.84,1126.26Z" style="fill-rule:nonzero;"/>
                <path d="M2220.11,1318.71C2220.56,1318.43 2221.02,1318.17 2221.49,1317.95C2222.05,1317.67 2222.64,1317.4 2223.24,1317.14C2224.9,1316.44 2226.58,1315.78 2228.27,1315.17C2233.23,1313.36 2238.27,1311.77 2243.36,1310.39C2249.79,1308.62 2256.29,1307.18 2262.87,1306.08C2266.36,1305.5 2269.86,1305.04 2273.39,1304.71C2276.9,1304.38 2280.43,1304.19 2283.96,1304.19C2286.73,1304.18 2289.51,1304.31 2292.28,1304.58C2296.24,1304.94 2300.17,1305.52 2304.07,1306.28C2305.65,1306.6 2307.22,1306.98 2308.78,1307.4C2310.12,1307.77 2311.45,1308.2 2312.74,1308.69C2313.86,1309.11 2314.94,1309.62 2316,1310.19C2316.94,1310.69 2317.82,1311.31 2318.63,1312C2319.45,1312.69 2320.13,1313.51 2320.65,1314.43C2321.22,1315.44 2321.53,1316.6 2321.53,1317.77C2321.51,1319.17 2321.07,1320.54 2320.28,1321.69C2319.56,1322.74 2318.66,1323.66 2317.63,1324.41C2316.53,1325.22 2315.34,1325.93 2314.1,1326.52C2312.64,1327.22 2311.14,1327.83 2309.61,1328.34C2307.69,1329 2305.75,1329.59 2303.8,1330.11C2301.49,1330.74 2299.17,1331.33 2296.82,1331.86C2291.43,1333.1 2286.01,1334.17 2280.55,1335.08C2274.79,1336.06 2269.01,1336.85 2263.19,1337.46C2260.43,1337.75 2257.66,1337.97 2254.88,1338.14C2252.34,1338.3 2249.78,1338.39 2247.21,1338.39C2244.95,1338.4 2242.69,1338.31 2240.44,1338.11C2238.5,1337.95 2236.59,1337.62 2234.72,1337.14C2232.26,1336.5 2229.85,1335.7 2227.5,1334.76C2225.64,1334.04 2223.85,1333.12 2222.16,1332.07C2221.45,1331.62 2220.76,1331.11 2220.12,1330.56C2219.52,1330.06 2218.97,1329.49 2218.47,1328.88C2217.98,1328.27 2217.57,1327.59 2217.27,1326.86C2216.93,1326.07 2216.75,1325.21 2216.75,1324.34C2216.75,1323.12 2217.12,1321.94 2217.79,1320.92C2218.4,1320.03 2219.19,1319.27 2220.11,1318.71ZM2313.86,1317.78C2313.67,1317.99 2313.46,1318.19 2313.22,1318.36C2312.48,1318.9 2311.7,1319.37 2310.88,1319.75C2309.69,1320.33 2308.47,1320.82 2307.22,1321.25C2305.45,1321.85 2303.65,1322.4 2301.84,1322.89C2299.62,1323.5 2297.39,1324.06 2295.16,1324.57C2289.91,1325.78 2284.62,1326.81 2279.31,1327.7C2273.7,1328.65 2268.08,1329.42 2262.42,1330.01C2259.76,1330.29 2257.09,1330.5 2254.42,1330.66C2252.01,1330.81 2249.6,1330.9 2247.19,1330.9C2245.15,1330.91 2243.11,1330.82 2241.06,1330.64C2239.56,1330.53 2238.07,1330.28 2236.6,1329.91C2234.45,1329.34 2232.34,1328.63 2230.26,1327.8C2228.82,1327.24 2227.46,1326.55 2226.15,1325.73C2225.73,1325.46 2225.33,1325.17 2224.95,1324.85C2224.89,1324.79 2224.83,1324.74 2224.76,1324.69C2225.23,1324.45 2225.7,1324.24 2226.18,1324.04C2227.72,1323.38 2229.27,1322.77 2230.83,1322.2C2235.6,1320.47 2240.44,1318.94 2245.34,1317.62C2251.51,1315.91 2257.78,1314.53 2264.1,1313.46C2267.41,1312.91 2270.75,1312.47 2274.1,1312.16C2277.38,1311.84 2280.68,1311.68 2283.97,1311.68C2286.5,1311.67 2289.05,1311.79 2291.57,1312.04C2295.27,1312.38 2298.97,1312.91 2302.61,1313.63C2304.02,1313.91 2305.41,1314.24 2306.79,1314.62C2307.91,1314.92 2309.01,1315.29 2310.09,1315.69C2310.89,1316 2311.67,1316.36 2312.43,1316.77C2312.91,1317.03 2313.36,1317.34 2313.78,1317.7C2313.81,1317.72 2313.83,1317.75 2313.86,1317.78Z"/>
                <path d="M2145.48,1298.25L2144.54,1298.27L2144.45,1298.27C2142.96,1298.27 2141.47,1298.17 2139.99,1297.98C2138.38,1297.79 2136.77,1297.52 2135.18,1297.18C2131.75,1296.45 2128.38,1295.44 2125.11,1294.16C2123.46,1293.52 2121.86,1292.79 2120.27,1292C2118.75,1291.22 2117.28,1290.36 2115.86,1289.4C2114.51,1288.48 2113.23,1287.44 2112.06,1286.31C2110.91,1285.2 2109.93,1283.94 2109.13,1282.57C2108.56,1281.59 2108.26,1280.49 2108.27,1279.36C2108.32,1277.8 2108.89,1276.3 2109.9,1275.1C2110.73,1274.09 2111.73,1273.2 2112.84,1272.49C2114.03,1271.72 2115.25,1271.04 2116.55,1270.47C2117.98,1269.82 2119.45,1269.25 2120.93,1268.76C2124.23,1267.68 2127.6,1266.85 2131.02,1266.28C2134.45,1265.67 2137.93,1265.36 2141.41,1265.34C2142.31,1265.33 2143.21,1265.36 2144.1,1265.41C2148.05,1265.67 2151.95,1266.4 2155.73,1267.57C2159.07,1268.59 2162.3,1269.95 2165.36,1271.63C2166.69,1272.36 2167.96,1273.14 2169.2,1274.01C2170.28,1274.77 2171.32,1275.59 2172.28,1276.49C2173.15,1277.29 2173.93,1278.16 2174.6,1279.11C2174.93,1279.59 2175.21,1280.09 2175.46,1280.61C2175.72,1281.18 2175.89,1281.79 2175.99,1282.41C2176.02,1282.52 2176.02,1282.62 2176.03,1282.72L2176.07,1283.24C2176.08,1283.36 2176.08,1283.48 2176.08,1283.59C2176.05,1285.18 2175.53,1286.72 2174.62,1288.02C2173.79,1289.19 2172.77,1290.2 2171.6,1291.02C2170.42,1291.86 2169.17,1292.59 2167.86,1293.19C2166.45,1293.84 2165.02,1294.41 2163.55,1294.9C2160.51,1295.91 2157.39,1296.69 2154.23,1297.24C2151.37,1297.78 2148.47,1298.11 2145.57,1298.25L2145.48,1298.25ZM2116.02,1279.48C2116.29,1279.21 2116.59,1278.98 2116.91,1278.78C2117.77,1278.21 2118.67,1277.72 2119.61,1277.31C2120.8,1276.76 2122.03,1276.28 2123.28,1275.88C2126.22,1274.9 2129.23,1274.16 2132.28,1273.66C2135.31,1273.12 2138.38,1272.84 2141.45,1272.82C2142.18,1272.82 2142.9,1272.85 2143.63,1272.89C2146.99,1273.1 2150.31,1273.72 2153.53,1274.73C2156.39,1275.59 2159.15,1276.76 2161.77,1278.19C2162.85,1278.79 2163.89,1279.44 2164.91,1280.15C2165.73,1280.72 2166.5,1281.34 2167.22,1282.01C2167.7,1282.44 2168.11,1282.91 2168.47,1283.41C2168.51,1283.46 2168.54,1283.52 2168.57,1283.57C2168.55,1283.62 2168.53,1283.66 2168.51,1283.7C2168.18,1284.17 2167.76,1284.58 2167.28,1284.9C2166.48,1285.48 2165.62,1285.98 2164.71,1286.4C2163.57,1286.93 2162.4,1287.39 2161.2,1287.79C2158.48,1288.69 2155.72,1289.39 2152.89,1289.88C2150.38,1290.34 2147.83,1290.64 2145.28,1290.77L2144.44,1290.78C2143.27,1290.78 2142.08,1290.69 2140.91,1290.56C2139.51,1290.39 2138.12,1290.15 2136.73,1289.85C2133.7,1289.21 2130.72,1288.32 2127.83,1287.19C2126.41,1286.63 2125.02,1286.01 2123.66,1285.32C2122.41,1284.69 2121.2,1283.98 2120.05,1283.19C2119.06,1282.53 2118.13,1281.78 2117.28,1280.94C2116.82,1280.49 2116.4,1280 2116.02,1279.48Z"/>
                <path d="M2364.95,1317.75L2367.5,1315.02L2372.98,1320.11L2370.44,1322.85C2367.55,1325.96 2364.55,1328.96 2361.45,1331.86C2357.77,1335.31 2354,1338.66 2350.15,1341.93C2348.11,1343.64 2345.91,1345.14 2343.57,1346.45C2341.09,1347.84 2338.5,1349.05 2335.85,1350.07C2333,1351.19 2330.07,1352.14 2327.12,1352.94C2323.97,1353.81 2320.77,1354.55 2317.56,1355.14C2314.16,1355.8 2310.74,1356.33 2307.31,1356.76C2303.72,1357.21 2300.13,1357.57 2296.53,1357.85C2289.06,1358.39 2281.57,1358.66 2274.09,1358.65C2265.94,1358.64 2257.79,1358.38 2249.65,1357.86C2242.07,1357.4 2234.5,1356.73 2226.95,1355.86C2220.53,1355.13 2214.13,1354.23 2207.76,1353.13C2205.18,1352.68 2202.6,1352.19 2200.03,1351.65C2197.95,1351.21 2195.88,1350.72 2193.82,1350.16C2191.32,1349.49 2188.77,1348.95 2186.21,1348.56C2183.35,1348.12 2180.47,1347.79 2177.57,1347.57C2174.4,1347.33 2171.22,1347.16 2168.05,1347.07C2164.6,1346.97 2161.17,1346.93 2157.73,1346.94C2152.29,1346.95 2146.86,1347.01 2141.43,1347.1C2135.23,1347.21 2129.03,1347.26 2122.83,1347.29C2115.6,1347.29 2108.37,1347.14 2101.15,1346.81C2093.68,1346.48 2086.24,1345.84 2078.83,1344.91C2070.84,1343.91 2062.93,1342.36 2055.16,1340.28C2049.16,1338.66 2043.29,1336.62 2037.59,1334.17C2033.39,1332.36 2029.31,1330.27 2025.38,1327.93C2022.8,1326.36 2020.29,1324.72 2017.82,1322.98C2017.1,1322.46 2016.36,1321.97 2015.61,1321.49C2015.47,1321.4 2015.32,1321.32 2015.17,1321.24L2017.57,1316.38C2017.23,1316.19 2016.85,1316.07 2016.45,1316.01L2018.12,1316.28L2013.1,1313.37L2016.79,1313.98C2017.38,1314.07 2017.94,1314.26 2018.47,1314.52C2018.87,1314.72 2019.26,1314.93 2019.64,1315.18C2020.5,1315.72 2021.33,1316.29 2022.16,1316.89C2024.47,1318.5 2026.82,1320.06 2029.23,1321.51C2032.87,1323.68 2036.66,1325.62 2040.55,1327.3C2045.93,1329.61 2051.46,1331.53 2057.11,1333.05C2064.54,1335.05 2072.11,1336.54 2079.75,1337.49C2086.97,1338.4 2094.22,1339.01 2101.49,1339.34C2108.59,1339.66 2115.7,1339.81 2122.8,1339.8C2128.97,1339.78 2135.14,1339.72 2141.31,1339.62C2146.77,1339.52 2152.24,1339.46 2157.72,1339.46C2161.22,1339.44 2164.74,1339.5 2168.25,1339.59C2171.55,1339.68 2174.86,1339.85 2178.15,1340.11C2181.22,1340.34 2184.29,1340.69 2187.34,1341.16C2190.18,1341.59 2193,1342.18 2195.77,1342.93C2197.69,1343.46 2199.63,1343.91 2201.57,1344.32C2204.05,1344.85 2206.54,1345.33 2209.03,1345.75C2215.25,1346.81 2221.51,1347.71 2227.8,1348.42C2235.22,1349.27 2242.66,1349.94 2250.12,1350.4C2258.11,1350.9 2266.1,1351.16 2274.11,1351.17C2281.4,1351.18 2288.7,1350.92 2295.97,1350.39C2299.45,1350.12 2302.92,1349.77 2306.38,1349.34C2309.65,1348.92 2312.92,1348.41 2316.16,1347.8C2319.19,1347.22 2322.2,1346.54 2325.16,1345.72C2327.86,1344.98 2330.53,1344.11 2333.14,1343.09C2335.48,1342.19 2337.75,1341.12 2339.94,1339.91C2341.84,1338.85 2343.65,1337.61 2345.32,1336.19C2349.07,1333.02 2352.75,1329.75 2356.33,1326.4C2359.32,1323.62 2362.18,1320.74 2364.95,1317.75Z" style="fill-rule:nonzero;"/>
                <path d="M2342.7,1376.44L2345.96,1374.61L2349.62,1381.13L2346.36,1382.96C2336.43,1388.54 2326.18,1393.5 2315.66,1397.83C2307.61,1401.14 2299.3,1403.81 2290.82,1405.81C2288.28,1406.39 2285.7,1406.81 2283.09,1407.06C2280.37,1407.32 2277.62,1407.44 2274.87,1407.44C2271.67,1407.43 2268.48,1407.29 2265.3,1407.03C2262.05,1406.75 2258.79,1406.38 2255.56,1405.9C2249.2,1404.96 2242.88,1403.74 2236.62,1402.25C2231.11,1400.94 2225.64,1399.45 2220.22,1397.81C2216.28,1396.63 2212.38,1395.34 2208.52,1393.93C2207.49,1393.57 2206.42,1393.34 2205.34,1393.24C2203.68,1393.06 2202.02,1392.97 2200.36,1392.98C2197.94,1393 2195.52,1393.09 2193.11,1393.27C2190.23,1393.49 2187.35,1393.75 2184.48,1394.07C2177.73,1394.84 2171,1395.69 2164.27,1396.62C2159.73,1397.23 2155.17,1397.83 2150.61,1398.41C2145.95,1399 2141.28,1399.54 2136.6,1400.02C2131.97,1400.51 2127.34,1400.9 2122.69,1401.2C2118.24,1401.5 2113.78,1401.65 2109.31,1401.66C2108.19,1401.66 2107.06,1401.65 2105.94,1401.62C2099.2,1401.48 2092.48,1400.87 2085.81,1399.79C2080.35,1398.91 2074.97,1397.56 2069.74,1395.75C2065.22,1394.2 2060.86,1392.27 2056.68,1389.96C2052.85,1387.85 2049.23,1385.38 2045.88,1382.58L2043,1380.18L2047.79,1374.43L2050.67,1376.82C2053.66,1379.32 2056.88,1381.52 2060.3,1383.4C2064.1,1385.5 2068.07,1387.26 2072.18,1388.68C2077,1390.34 2081.96,1391.58 2087.01,1392.39C2093.32,1393.42 2099.71,1394 2106.11,1394.14C2107.17,1394.16 2108.24,1394.17 2109.3,1394.17C2113.61,1394.16 2117.91,1394.01 2122.21,1393.73C2126.75,1393.43 2131.3,1393.05 2135.82,1392.58C2140.44,1392.1 2145.06,1391.56 2149.67,1390.97C2154.21,1390.39 2158.73,1389.81 2163.27,1389.2C2170.05,1388.27 2176.84,1387.41 2183.64,1386.63C2186.6,1386.3 2189.57,1386.03 2192.55,1385.81C2195.12,1385.62 2197.72,1385.51 2200.31,1385.5C2202.25,1385.48 2204.18,1385.58 2206.11,1385.79C2207.79,1385.96 2209.44,1386.32 2211.02,1386.87C2214.77,1388.23 2218.56,1389.5 2222.38,1390.64C2227.66,1392.25 2232.98,1393.69 2238.36,1394.96C2244.4,1396.41 2250.5,1397.59 2256.66,1398.5C2259.73,1398.95 2262.82,1399.31 2265.93,1399.56C2268.91,1399.82 2271.89,1399.94 2274.89,1399.96C2277.39,1399.96 2279.89,1399.84 2282.39,1399.61C2284.66,1399.39 2286.91,1399.03 2289.14,1398.52C2297.21,1396.61 2305.14,1394.07 2312.82,1390.91C2323.05,1386.68 2333.03,1381.86 2342.7,1376.44Z" style="fill-rule:nonzero;"/>
            </g>
        </g>
    </g>
</svg>
