<?xml version="1.0" encoding="UTF-8" standalone="no"?>
<!DOCTYPE svg PUBLIC "-//W3C//DTD SVG 1.1//EN" "http://www.w3.org/Graphics/SVG/1.1/DTD/svg11.dtd">
<svg width="100%" height="100%" viewBox="0 0 4500 4500" version="1.1" xmlns="http://www.w3.org/2000/svg" xmlns:xlink="http://www.w3.org/1999/xlink" xml:space="preserve" xmlns:serif="http://www.serif.com/" style="fill-rule:evenodd;clip-rule:evenodd;stroke-linejoin:round;stroke-miterlimit:2;">
    <g transform="matrix(1,0,0,1,-13650,0)">
        <rect id="Artboard4" x="13650" y="0" width="4500" height="4500" style="fill:none;"/>
        <g id="Artboard41" serif:id="Artboard4">
            <g transform="matrix(8.00816,0,0,8.00816,4513.92,-2359.18)">
                <path d="M1233.04,575.559C1233.02,550.328 1238.07,525.355 1247.89,502.117C1257.39,479.688 1271.13,459.312 1288.36,442.105C1305.57,424.875 1325.94,411.145 1348.36,401.637C1371.6,391.816 1396.58,386.77 1421.81,386.793C1447.04,386.77 1472.02,391.816 1495.27,401.637C1517.68,411.145 1538.06,424.875 1555.26,442.105C1572.49,459.312 1586.23,479.688 1595.73,502.105C1605.55,525.348 1610.6,550.328 1610.58,575.559C1610.6,600.789 1605.55,625.773 1595.73,649.012C1586.23,671.43 1572.49,691.805 1555.26,709.012C1538.06,726.242 1517.68,739.973 1495.27,749.48C1472.02,759.301 1447.04,764.348 1421.81,764.328C1396.58,764.348 1371.6,759.301 1348.36,749.48C1325.94,739.973 1305.57,726.242 1288.36,709.012C1271.13,691.805 1257.39,671.43 1247.89,649.012C1238.07,625.773 1233.02,600.789 1233.04,575.559ZM1249.09,575.559C1249.06,552.48 1253.68,529.625 1262.67,508.352C1271.36,487.84 1283.94,469.195 1299.7,453.453C1315.45,437.688 1334.09,425.113 1354.61,416.418C1375.88,407.434 1398.73,402.812 1421.81,402.836C1444.89,402.812 1467.75,407.434 1489.01,416.418C1509.53,425.113 1528.17,437.688 1543.91,453.453C1559.68,469.195 1572.26,487.84 1580.95,508.363C1589.94,529.625 1594.56,552.48 1594.54,575.559C1594.56,598.641 1589.94,621.496 1580.95,642.758C1572.26,663.281 1559.68,681.922 1543.91,697.664C1528.17,713.43 1509.53,726.008 1489.01,734.703C1467.75,743.684 1444.89,748.305 1421.81,748.285C1398.73,748.305 1375.88,743.684 1354.61,734.703C1334.09,726.008 1315.45,713.43 1299.7,697.664C1283.94,681.922 1271.36,663.281 1262.67,642.758C1253.68,621.496 1249.06,598.641 1249.09,575.559Z"/>
                <path d="M1290.34,449.41L1287.66,452.016C1275.32,463.969 1271.52,478.555 1277.13,493.457C1281.54,505.156 1292.58,514.602 1301.3,523.906C1305.66,528.562 1309.44,533.129 1311.67,537.465C1313.9,541.801 1314.64,545.672 1313.4,549.914C1310.56,559.695 1304.76,567.211 1300.92,575.762C1297.07,584.312 1295.9,594.422 1303.1,606.367C1310.12,618.023 1317.41,622.605 1323.91,624.965C1330.41,627.324 1335.34,627.781 1340.27,631.902C1342.85,634.066 1343.94,635.809 1344.13,636.391C1344.15,636.457 1344.16,636.391 1344.18,636.422C1343.57,636.91 1338.59,638.086 1332.57,637.102C1324.23,635.742 1315.67,640.008 1309.06,645.633C1302.44,651.262 1297.13,658.406 1298.33,665.98C1299.16,671.27 1297.04,681.695 1291.08,696.051L1289.65,699.508L1296.56,702.375L1298,698.914C1304.16,684.039 1307.03,673.074 1305.72,664.812C1305.31,662.227 1308.43,656.004 1313.91,651.336C1319.39,646.672 1326.61,643.719 1331.37,644.492C1338.44,645.648 1344.56,645.762 1348.9,642.234C1351.07,640.473 1352.18,636.938 1351.25,634.078C1350.32,631.215 1348.23,628.812 1345.07,626.164C1338.5,620.66 1331.93,619.914 1326.46,617.93C1321,615.945 1315.86,613.039 1309.51,602.504C1303.34,592.258 1304.44,586.191 1307.75,578.832C1311.06,571.473 1317.29,563.352 1320.59,552.008C1322.43,545.688 1321.13,539.5 1318.33,534.043C1315.53,528.586 1311.29,523.629 1306.76,518.789C1297.7,509.113 1287.48,499.703 1284.14,490.816C1279.41,478.27 1282.03,467.898 1292.87,457.395L1295.56,454.789L1290.34,449.41Z" style="fill-rule:nonzero;"/>
                <path d="M1399.62,389.527L1396.84,392.035C1385.69,402.109 1377.52,410.598 1372.27,417.727C1367.02,424.855 1364.1,430.805 1365.82,436.527C1367.39,441.785 1370.83,454.133 1378.2,465.855C1385.57,477.578 1397.22,488.965 1414.85,491.562C1419.83,492.297 1423.17,493.766 1425.12,495.52C1427.07,497.277 1427.96,499.293 1427.96,502.566C1427.96,509 1423.15,519.973 1412.85,534.141C1394.95,542.684 1381.37,549.809 1372.23,555.543C1367.57,558.469 1364.03,561.023 1361.49,563.406C1358.96,565.789 1356.88,567.996 1357.11,571.527C1357.23,573.246 1358,575.148 1359.43,576.316C1360.86,577.484 1362.49,577.793 1363.89,577.844C1366.68,577.938 1369.27,577.152 1371.97,576.383C1374.67,575.613 1377.4,574.781 1379.6,574.406C1381.8,574.031 1383.23,574.309 1383.46,574.457C1385.38,575.652 1387.22,575.719 1389.12,575.684C1391.02,575.645 1393.05,575.359 1395.25,574.965C1399.64,574.18 1404.68,572.922 1409.57,571.941C1414.47,570.965 1419.25,570.297 1422.66,570.508C1424.37,570.609 1425.7,570.938 1426.53,571.348C1427.36,571.758 1427.71,572.117 1428.01,572.801C1430.39,578.137 1433.93,590.934 1438.86,602.316C1441.33,608.004 1444.16,613.418 1447.69,617.668C1451.24,621.918 1455.8,625.199 1461.32,625.289C1469.86,625.43 1474.69,623.934 1479.35,621.391C1484.01,618.848 1488.62,615.531 1499.19,611.094C1508.96,606.996 1514.93,609.199 1521.26,613.074C1527.58,616.949 1533.5,623.074 1541.74,625.172C1544.91,625.98 1547.98,624.723 1550.44,622.871C1552.91,621.016 1555.13,618.43 1557.36,615.281C1561.81,608.98 1566.18,600.355 1570.21,590.895C1578.25,571.98 1584.81,550.098 1585.97,537.395C1586.82,528.004 1589.76,520.938 1594.67,515.684L1597.22,512.945L1591.75,507.836L1589.19,510.57C1583,517.207 1579.47,526.094 1578.51,536.719C1577.52,547.543 1571.11,569.648 1563.32,587.961C1559.42,597.121 1555.15,605.422 1551.24,610.961C1549.29,613.73 1547.4,615.793 1545.94,616.891C1544.48,617.984 1543.83,617.98 1543.59,617.922C1538.19,616.547 1532.48,611.172 1525.17,606.691C1517.86,602.211 1508.19,599.203 1496.3,604.191C1485.21,608.848 1479.8,612.617 1475.77,614.82C1471.73,617.023 1469.21,617.934 1461.44,617.805C1458.81,617.762 1456.21,616.195 1453.45,612.875C1450.68,609.559 1448.05,604.676 1445.73,599.336C1441.11,588.66 1437.83,576.457 1434.86,569.762C1433.82,567.438 1431.94,565.668 1429.84,564.633C1427.75,563.602 1425.48,563.176 1423.12,563.031C1418.42,562.742 1413.24,563.578 1408.11,564.602C1402.98,565.629 1397.93,566.879 1393.93,567.598C1391.93,567.953 1390.19,568.172 1388.97,568.195C1387.75,568.219 1387.12,567.914 1387.43,568.105C1384.46,566.25 1381.27,566.527 1378.34,567.027C1375.41,567.531 1372.5,568.453 1369.92,569.184C1368,569.73 1366.78,569.898 1365.64,570.059C1365.93,569.672 1366.07,569.379 1366.62,568.863C1368.54,567.059 1371.78,564.664 1376.21,561.887C1385.06,556.328 1398.71,549.137 1417,540.438L1417.85,540.035L1418.41,539.273C1429.48,524.211 1435.44,512.418 1435.44,502.566C1435.44,497.637 1433.62,493.105 1430.13,489.961C1426.64,486.812 1421.83,485.023 1415.94,484.156C1400.94,481.941 1391.2,472.473 1384.54,461.871C1377.87,451.27 1374.62,439.82 1372.99,434.379C1372.57,432.973 1373.57,428.586 1378.3,422.168C1383.03,415.75 1390.91,407.48 1401.86,397.59L1404.64,395.082L1399.62,389.527Z" style="fill-rule:nonzero;"/>
                <path d="M1422.25,626.375C1416.65,627.219 1411.1,630.512 1406.3,634.168C1403.1,636.605 1400.31,639.305 1398.3,642.086C1396.29,644.867 1394.58,647.941 1395.8,651.609C1396.77,654.52 1397.25,658.16 1400.31,661.227C1403.38,664.289 1408.25,665.422 1415.68,664.852C1421.73,664.387 1428.29,666.367 1434.85,666.129C1438.12,666.012 1441.64,665.141 1444.44,662.625C1447.24,660.105 1449.05,656.312 1450.08,651.156C1451.09,646.082 1451.09,641.965 1450.01,638.508C1448.93,635.051 1446.66,632.422 1444.06,630.785C1438.85,627.516 1432.71,627.316 1427.83,626.422C1425.98,626.082 1424.11,626.094 1422.25,626.375ZM1426.48,633.785C1431.96,634.789 1437.31,635.391 1440.08,637.125C1441.46,637.996 1442.3,638.922 1442.86,640.734C1443.43,642.543 1443.59,645.406 1442.74,649.691C1441.9,653.895 1440.63,655.98 1439.44,657.059C1438.24,658.137 1436.84,658.566 1434.57,658.648C1430.04,658.812 1422.96,656.781 1415.11,657.387C1408.63,657.887 1406.56,656.879 1405.61,655.934C1404.66,654.984 1404.07,652.746 1402.9,649.238C1403.06,649.699 1402.98,648.391 1404.38,646.465C1405.77,644.539 1408.11,642.203 1410.84,640.125C1416.29,635.969 1423.54,633.246 1426.48,633.785Z" style="fill-rule:nonzero;"/>
                <path d="M1579.93,657.277L1576.49,658.746C1547.45,671.141 1526.5,676.949 1514.96,676.629C1504.47,676.34 1494.27,679.488 1487.73,683.797C1484.46,685.949 1481.71,688.32 1481.15,692.156C1480.87,694.074 1481.53,696.281 1482.83,697.793C1484.14,699.301 1485.86,700.262 1487.92,701.004C1493.34,702.957 1494.82,706.293 1494.55,709.543C1494.28,712.789 1491.95,716.145 1487.18,717.391C1484.76,718.02 1479.37,718.586 1473.03,719.109C1466.69,719.637 1459.27,720.188 1452.02,721.109C1444.77,722.027 1437.71,723.285 1431.88,725.387C1426.05,727.488 1420.91,730.508 1419.29,735.992C1417.89,740.699 1416.59,744.312 1415.48,746.699C1414.36,749.09 1413.08,750.07 1413.72,749.746L1410.37,751.422L1413.72,758.117L1417.07,756.445C1419.85,755.055 1420.88,752.824 1422.26,749.867C1423.64,746.91 1425.01,743.035 1426.47,738.117C1426.98,736.379 1429.54,734.188 1434.42,732.43C1439.3,730.672 1445.97,729.422 1452.96,728.535C1459.95,727.648 1467.27,727.102 1473.65,726.57C1480.03,726.043 1485.33,725.605 1489.06,724.633C1496.59,722.672 1501.48,716.668 1502.01,710.156C1502.55,703.645 1498.41,696.824 1490.46,693.961C1489.32,693.555 1488.92,693.195 1488.73,693.023C1488.91,692.758 1489.72,691.449 1491.85,690.047C1496.67,686.867 1505.99,683.867 1514.75,684.113C1528.88,684.504 1550,678.191 1579.43,665.633L1582.87,664.164L1579.93,657.277Z" style="fill-rule:nonzero;"/>
                <path d="M1363.58,682.875C1357.92,682.398 1351.69,684.945 1345.85,690.523C1343.3,692.957 1340.98,694.43 1338.79,696.578C1336.6,698.727 1334.81,701.941 1334.61,706C1334.44,709.445 1336.39,712.789 1339.07,714.266C1341.75,715.738 1344.7,715.969 1347.79,715.867C1353.96,715.66 1360.97,713.777 1366.49,712.012C1369.32,711.105 1371.56,710.211 1373.42,709.039C1375.29,707.871 1376.86,706.273 1377.63,704.266C1379.18,700.254 1377.64,696.652 1376.02,692.422C1374,687.133 1369.25,683.352 1363.58,682.875ZM1362.95,690.336C1365.89,690.582 1367.89,692.129 1369.03,695.102C1370.58,699.137 1370.81,701.164 1370.65,701.57C1370.57,701.773 1370.42,702.086 1369.44,702.699C1368.46,703.312 1366.73,704.074 1364.21,704.883C1359.02,706.543 1352.3,708.227 1347.54,708.383C1345.16,708.465 1343.34,708.074 1342.68,707.707C1342.01,707.336 1342.03,707.621 1342.09,706.363C1342.21,703.867 1342.66,703.27 1344.04,701.918C1345.41,700.566 1347.98,698.844 1351.02,695.938C1355.77,691.402 1360.01,690.086 1362.95,690.336Z" style="fill-rule:nonzero;"/>
            </g>
        </g>
    </g>
</svg>
