<?xml version="1.0" encoding="UTF-8" standalone="no"?>
<!DOCTYPE svg PUBLIC "-//W3C//DTD SVG 1.1//EN" "http://www.w3.org/Graphics/SVG/1.1/DTD/svg11.dtd">
<svg width="100%" height="100%" viewBox="0 0 4501 4501" version="1.1" xmlns="http://www.w3.org/2000/svg" xmlns:xlink="http://www.w3.org/1999/xlink" xml:space="preserve" xmlns:serif="http://www.serif.com/" style="fill-rule:evenodd;clip-rule:evenodd;stroke-linejoin:round;stroke-miterlimit:2;">
    <g transform="matrix(1,0,0,1,-18278,-5309)">
        <g id="Artboard10" transform="matrix(1,0,0,1,-22671.3,5309.63)">
            <rect x="40950" y="0" width="4500" height="4500" style="fill:none;"/>
            <g transform="matrix(8.00816,0,0,8.00816,19070.1,-14079)">
                <path d="M2824.39,2039.04C2824.38,2013.81 2829.42,1988.84 2839.24,1965.6C2848.75,1943.17 2862.48,1922.8 2879.71,1905.59C2896.92,1888.36 2917.29,1874.62 2939.71,1865.12C2962.95,1855.3 2987.93,1850.25 3013.16,1850.27C3038.39,1850.25 3063.38,1855.3 3086.62,1865.12C3109.03,1874.62 3129.41,1888.36 3146.62,1905.59C3163.85,1922.8 3177.58,1943.17 3187.09,1965.59C3196.9,1988.83 3201.95,2013.81 3201.93,2039.04C3201.95,2064.27 3196.9,2089.25 3187.09,2112.49C3177.58,2134.91 3163.85,2155.28 3146.62,2172.49C3129.41,2189.72 3109.03,2203.45 3086.62,2212.96C3063.38,2222.78 3038.39,2227.83 3013.16,2227.81C2987.93,2227.83 2962.95,2222.78 2939.71,2212.96C2917.29,2203.45 2896.92,2189.72 2879.71,2172.49C2862.48,2155.28 2848.75,2134.91 2839.24,2112.49C2829.42,2089.25 2824.38,2064.27 2824.39,2039.04ZM2840.44,2039.04C2840.42,2015.96 2845.04,1993.11 2854.02,1971.83C2862.72,1951.32 2875.29,1932.68 2891.06,1916.93C2906.8,1901.17 2925.44,1888.59 2945.97,1879.9C2967.23,1870.91 2990.08,1866.29 3013.16,1866.32C3036.24,1866.29 3059.1,1870.91 3080.36,1879.9C3100.88,1888.59 3119.53,1901.17 3135.27,1916.93C3151.03,1932.68 3163.61,1951.32 3172.31,1971.84C3181.29,1993.11 3185.91,2015.96 3185.89,2039.04C3185.91,2062.12 3181.29,2084.98 3172.31,2106.24C3163.61,2126.76 3151.03,2145.4 3135.27,2161.14C3119.53,2176.91 3100.88,2189.49 3080.36,2198.18C3059.1,2207.16 3036.24,2211.78 3013.16,2211.77C2990.08,2211.78 2967.23,2207.16 2945.97,2198.18C2925.44,2189.49 2906.8,2176.91 2891.06,2161.14C2875.29,2145.4 2862.72,2126.76 2854.02,2106.24C2845.04,2084.98 2840.42,2062.12 2840.44,2039.04Z"/>
                <path d="M2914.23,2039.04C2914.23,2028.69 2918.35,2018.75 2925.67,2011.44C2932.98,2004.12 2942.92,2000 2953.27,2000C2963.62,2000 2973.56,2004.12 2980.88,2011.44C2988.19,2018.75 2992.31,2028.69 2992.31,2039.04C2992.31,2049.39 2988.19,2059.33 2980.88,2066.64C2973.56,2073.96 2963.62,2078.08 2953.27,2078.08C2942.92,2078.08 2932.98,2073.96 2925.67,2066.64C2918.35,2059.33 2914.23,2049.39 2914.23,2039.04ZM2921.72,2039.04C2921.72,2030.68 2925.05,2022.64 2930.96,2016.73C2936.88,2010.82 2944.91,2007.49 2953.27,2007.49C2961.63,2007.49 2969.67,2010.82 2975.58,2016.73C2981.5,2022.64 2984.82,2030.68 2984.82,2039.04C2984.82,2047.4 2981.5,2055.44 2975.58,2061.35C2969.67,2067.27 2961.63,2070.59 2953.27,2070.59C2944.91,2070.59 2936.88,2067.27 2930.96,2061.35C2925.05,2055.44 2921.72,2047.4 2921.72,2039.04Z"/>
                <path d="M2890.14,1909.19L2886.92,1907.29L2890.73,1900.84L2893.95,1902.74C2899.23,1905.87 2903.71,1910.18 2907.03,1915.35C2910.45,1920.7 2912.51,1926.8 2913.03,1933.13C2913.12,1934.22 2913.16,1935.31 2913.16,1936.4C2913.16,1946.15 2909.5,1955.54 2902.91,1962.73C2896.28,1969.97 2887.15,1974.45 2877.37,1975.27C2876.28,1975.36 2875.19,1975.41 2874.1,1975.41C2866.59,1975.41 2859.23,1973.23 2852.93,1969.15L2849.8,1967.11L2853.86,1960.83L2857,1962.86C2862.1,1966.16 2868.03,1967.92 2874.1,1967.92C2874.98,1967.92 2875.86,1967.89 2876.75,1967.81C2884.65,1967.15 2892.03,1963.53 2897.39,1957.67C2902.72,1951.88 2905.67,1944.27 2905.68,1936.4C2905.68,1935.51 2905.64,1934.62 2905.57,1933.75C2905.14,1928.63 2903.48,1923.7 2900.72,1919.38C2898.04,1915.2 2894.42,1911.72 2890.14,1909.19Z" style="fill-rule:nonzero;"/>
                <path d="M3186.97,2092.52L3190.68,2093.01L3189.7,2100.43L3185.98,2099.94C3178.96,2099 3172.13,2096.91 3165.78,2093.76C3159.72,2090.75 3154.21,2086.73 3149.48,2081.88C3144.86,2077.15 3141.16,2071.61 3138.55,2065.53C3135.92,2059.35 3134.55,2052.71 3134.55,2045.99C3134.55,2039.14 3135.98,2032.36 3138.71,2026.08C3141.43,2019.89 3145.28,2014.28 3150.06,2009.51C3154.96,2004.62 3160.67,2000.62 3166.94,1997.67C3173.5,1994.57 3180.54,1992.59 3187.77,1991.83L3191.49,1991.44L3192.28,1998.88L3188.56,1999.28C3182.17,1999.95 3175.93,2001.7 3170.12,2004.44C3164.64,2007.03 3159.63,2010.54 3155.34,2014.82C3151.23,2018.92 3147.91,2023.76 3145.57,2029.08C3143.25,2034.42 3142.04,2040.18 3142.04,2045.99C3142.04,2051.69 3143.2,2057.34 3145.43,2062.59C3147.68,2067.81 3150.87,2072.58 3154.84,2076.66C3158.98,2080.9 3163.81,2084.42 3169.12,2087.05C3174.72,2089.84 3180.75,2091.68 3186.97,2092.52Z" style="fill-rule:nonzero;"/>
                <path d="M3057.55,1990.91C3057.55,1984.82 3059.98,1978.97 3064.28,1974.66C3068.6,1970.35 3074.45,1967.92 3080.54,1967.92C3086.64,1967.92 3092.49,1970.35 3096.8,1974.66C3101.11,1978.97 3103.53,1984.82 3103.53,1990.91C3103.53,1997.01 3101.11,2002.86 3096.8,2007.17C3092.49,2011.48 3086.64,2013.91 3080.54,2013.91C3074.45,2013.91 3068.6,2011.48 3064.28,2007.17C3059.98,2002.86 3057.55,1997.01 3057.55,1990.91ZM3065.03,1990.91C3065.03,1986.81 3066.67,1982.86 3069.58,1979.95C3072.49,1977.04 3076.43,1975.41 3080.54,1975.41C3084.65,1975.41 3088.6,1977.04 3091.5,1979.95C3094.41,1982.86 3096.05,1986.81 3096.05,1990.91C3096.05,1995.02 3094.41,1998.97 3091.5,2001.88C3088.6,2004.79 3084.65,2006.42 3080.54,2006.42C3076.43,2006.42 3072.49,2004.79 3069.58,2001.88C3066.67,1998.97 3065.03,1995.02 3065.03,1990.91Z"/>
                <path d="M2867.41,2146.44L2865.03,2149.33L2859.25,2144.57L2861.64,2141.68C2864.87,2137.77 2868.55,2134.26 2872.64,2131.24C2876.99,2128 2881.72,2125.28 2886.7,2123.14C2891.02,2121.28 2895.48,2119.86 2900.07,2118.9C2904.41,2117.98 2908.81,2117.51 2913.24,2117.5C2917.48,2117.49 2921.7,2117.96 2925.83,2118.91C2929.73,2119.8 2933.51,2121.2 2937.05,2123.08C2940.46,2124.9 2943.56,2127.23 2946.25,2130.01C2948.92,2132.8 2951.07,2136.04 2952.61,2139.59C2954.35,2143.68 2955.25,2148.09 2955.24,2152.53C2955.2,2157.23 2954.31,2161.87 2952.62,2166.23C2950.83,2170.86 2948.37,2175.18 2945.32,2179.07C2942.04,2183.25 2938.25,2187 2934.02,2190.2C2929.47,2193.65 2924.53,2196.53 2919.29,2198.78L2915.85,2200.26L2912.91,2193.37L2916.34,2191.9C2921.03,2189.89 2925.44,2187.32 2929.5,2184.23C2933.21,2181.42 2936.54,2178.13 2939.42,2174.45C2942.02,2171.14 2944.12,2167.47 2945.63,2163.54C2947,2160.01 2947.72,2156.28 2947.75,2152.49C2947.76,2149.08 2947.07,2145.69 2945.73,2142.55C2944.55,2139.83 2942.9,2137.34 2940.84,2135.2C2938.72,2133 2936.25,2131.13 2933.53,2129.69C2930.58,2128.12 2927.42,2126.94 2924.16,2126.2C2920.58,2125.38 2916.92,2124.98 2913.26,2124.98C2909.35,2125 2905.45,2125.41 2901.62,2126.22C2897.52,2127.08 2893.52,2128.36 2889.67,2130.02C2885.21,2131.94 2881,2134.36 2877.09,2137.25C2873.51,2139.91 2870.26,2143 2867.41,2146.44Z" style="fill-rule:nonzero;"/>
                <path d="M3050.86,2132.97C3051.74,2128.53 3053.43,2124.28 3055.85,2120.44C3058.2,2116.71 3061.18,2113.41 3064.66,2110.7C3071.78,2105.17 3080.56,2102.17 3089.58,2102.2C3092.32,2102.2 3095.03,2102.47 3097.71,2103C3106.86,2104.78 3115.14,2109.63 3121.17,2116.74C3124.06,2120.14 3126.33,2124 3127.91,2128.17C3129.5,2132.39 3130.32,2136.85 3130.33,2141.35C3130.33,2143.78 3130.08,2146.18 3129.61,2148.57C3128.73,2153.02 3127.04,2157.26 3124.64,2161.1C3122.28,2164.84 3119.3,2168.13 3115.82,2170.84C3108.7,2176.38 3099.92,2179.37 3090.89,2179.34C3088.17,2179.34 3085.44,2179.07 3082.77,2178.53C3073.61,2176.76 3065.34,2171.91 3059.3,2164.8C3056.43,2161.4 3054.15,2157.53 3052.57,2153.36C3050.98,2149.16 3050.16,2144.69 3050.16,2140.18C3050.16,2137.77 3050.39,2135.35 3050.86,2132.97ZM3058.21,2134.43C3058.91,2130.88 3060.25,2127.49 3062.19,2124.42C3064.07,2121.43 3066.47,2118.78 3069.26,2116.61C3075.07,2112.1 3082.22,2109.66 3089.57,2109.68C3091.82,2109.68 3094.06,2109.91 3096.27,2110.34C3103.75,2111.8 3110.53,2115.77 3115.46,2121.57C3117.79,2124.32 3119.63,2127.46 3120.91,2130.82C3122.18,2134.18 3122.83,2137.75 3122.84,2141.35C3122.84,2143.28 3122.65,2145.21 3122.27,2147.11C3121.57,2150.66 3120.22,2154.05 3118.3,2157.11C3116.41,2160.11 3114.02,2162.75 3111.23,2164.93C3105.42,2169.43 3098.27,2171.87 3090.91,2171.85C3088.66,2171.85 3086.41,2171.62 3084.21,2171.19C3076.72,2169.73 3069.95,2165.78 3065.01,2159.96C3062.69,2157.21 3060.85,2154.09 3059.57,2150.72C3058.3,2147.35 3057.64,2143.79 3057.64,2140.18C3057.64,2138.25 3057.84,2136.32 3058.21,2134.43Z"/>
                <path d="M3030.36,1877.35C3031,1874.58 3032.21,1871.96 3033.91,1869.67C3035.61,1867.41 3037.7,1865.47 3040.07,1863.94C3042.51,1862.37 3045.18,1861.17 3047.99,1860.4C3050.94,1859.59 3053.99,1859.17 3057.05,1859.18C3059.82,1859.18 3062.57,1859.5 3065.27,1860.13C3068.65,1860.9 3071.91,1862.16 3074.94,1863.86C3077.77,1865.44 3080.36,1867.45 3082.6,1869.8C3084.73,1872.04 3086.48,1874.62 3087.73,1877.46C3088.97,1880.24 3089.61,1883.25 3089.63,1886.29C3089.63,1887.86 3089.46,1889.41 3089.11,1890.93C3088.46,1893.7 3087.25,1896.32 3085.55,1898.6C3083.85,1900.87 3081.77,1902.81 3079.4,1904.34C3076.95,1905.91 3074.27,1907.11 3071.47,1907.88C3068.53,1908.69 3065.48,1909.11 3062.41,1909.09C3059.64,1909.09 3056.89,1908.77 3054.19,1908.14C3050.81,1907.37 3047.56,1906.12 3044.53,1904.42C3041.69,1902.84 3039.11,1900.83 3036.86,1898.48C3034.73,1896.24 3032.99,1893.65 3031.73,1890.82C3030.5,1888.04 3029.85,1885.03 3029.83,1881.98C3029.83,1880.43 3030.01,1878.87 3030.36,1877.35ZM3037.66,1879.04C3038.06,1877.28 3038.84,1875.6 3039.92,1874.14C3041.08,1872.61 3042.5,1871.28 3044.12,1870.24C3045.93,1869.07 3047.91,1868.19 3049.99,1867.62C3052.28,1866.98 3054.65,1866.66 3057.03,1866.67C3059.24,1866.67 3061.44,1866.93 3063.59,1867.43C3066.28,1868.04 3068.88,1869.03 3071.28,1870.39C3073.46,1871.61 3075.45,1873.15 3077.18,1874.97C3078.72,1876.58 3079.98,1878.45 3080.89,1880.5C3081.71,1882.34 3082.14,1884.32 3082.15,1886.32C3082.15,1887.3 3082.03,1888.27 3081.82,1889.23C3081.4,1891 3080.63,1892.67 3079.55,1894.13C3078.38,1895.67 3076.96,1897 3075.34,1898.04C3073.54,1899.2 3071.56,1900.09 3069.48,1900.66C3067.18,1901.3 3064.82,1901.62 3062.44,1901.61C3060.22,1901.61 3058.03,1901.35 3055.87,1900.85C3053.18,1900.24 3050.6,1899.25 3048.19,1897.89C3046,1896.67 3044.01,1895.13 3042.28,1893.31C3040.73,1891.69 3039.48,1889.82 3038.57,1887.78C3037.76,1885.95 3037.34,1883.96 3037.31,1881.96C3037.32,1880.98 3037.43,1880 3037.66,1879.04Z"/>
            </g>
        </g>
    </g>
</svg>
