<?xml version="1.0" encoding="UTF-8" standalone="no"?>
<!DOCTYPE svg PUBLIC "-//W3C//DTD SVG 1.1//EN" "http://www.w3.org/Graphics/SVG/1.1/DTD/svg11.dtd">
<svg width="100%" height="100%" viewBox="0 0 4501 4501" version="1.1" xmlns="http://www.w3.org/2000/svg" xmlns:xlink="http://www.w3.org/1999/xlink" xml:space="preserve" xmlns:serif="http://www.serif.com/" style="fill-rule:evenodd;clip-rule:evenodd;stroke-linejoin:round;stroke-miterlimit:2;">
    <g transform="matrix(1,0,0,1,-13728,-5309)">
        <g id="Artboard9" transform="matrix(1,0,0,1,-22671.3,5309.63)">
            <rect x="36400" y="0" width="4500" height="4500" style="fill:none;"/>
            <g transform="matrix(8.00816,0,0,8.00816,33402.7,-7976.65)">
                <path d="M466.473,1277.03C466.453,1251.8 471.5,1226.82 481.32,1203.59C490.828,1181.16 504.559,1160.79 521.789,1143.57C538.996,1126.35 559.371,1112.61 581.789,1103.11C605.027,1093.29 630.012,1088.24 655.242,1088.26C680.473,1088.24 705.457,1093.29 728.695,1103.11C751.113,1112.61 771.488,1126.35 788.695,1143.57C805.926,1160.79 819.656,1181.16 829.164,1203.57C838.984,1226.82 844.031,1251.8 844.012,1277.03C844.031,1302.26 838.984,1327.24 829.164,1350.48C819.656,1372.9 805.926,1393.27 788.695,1410.48C771.488,1427.71 751.113,1441.44 728.695,1450.95C705.457,1460.77 680.473,1465.82 655.242,1465.8C630.012,1465.82 605.027,1460.77 581.789,1450.95C559.371,1441.44 538.996,1427.71 521.789,1410.48C504.559,1393.27 490.828,1372.9 481.32,1350.48C471.5,1327.24 466.453,1302.26 466.473,1277.03ZM482.516,1277.03C482.496,1253.95 487.117,1231.09 496.102,1209.82C504.797,1189.31 517.37,1170.66 533.137,1154.92C548.879,1139.16 567.52,1126.58 588.047,1117.89C609.309,1108.9 632.164,1104.28 655.242,1104.31C678.324,1104.28 701.176,1108.9 722.438,1117.89C742.961,1126.58 761.605,1139.16 777.348,1154.92C793.113,1170.66 805.691,1189.31 814.383,1209.83C823.367,1231.09 827.988,1253.95 827.969,1277.03C827.988,1300.11 823.367,1322.96 814.383,1344.23C805.691,1364.75 793.113,1383.39 777.348,1399.13C761.605,1414.9 742.961,1427.48 722.438,1436.17C701.176,1445.16 678.324,1449.77 655.242,1449.75C632.164,1449.77 609.309,1445.16 588.047,1436.17C567.52,1427.48 548.879,1414.9 533.137,1399.13C517.37,1383.39 504.797,1364.75 496.102,1344.23C487.117,1322.96 482.496,1300.11 482.516,1277.03Z"/>
                <path d="M607.191,1144.54C608.172,1144.69 609.051,1145.23 609.641,1146.04C610.215,1146.84 610.461,1147.83 610.312,1148.82C610.152,1149.8 609.617,1150.68 608.816,1151.27C608.012,1151.84 607.02,1152.09 606.035,1151.94C595.875,1150.36 585.809,1148.23 575.887,1145.56C566.422,1143.02 557.113,1139.94 547.992,1136.35C547.074,1135.98 546.336,1135.27 545.938,1134.36C545.543,1133.44 545.523,1132.41 545.887,1131.49C546.25,1130.56 546.965,1129.82 547.875,1129.43C548.793,1129.03 549.82,1129.02 550.742,1129.38C559.598,1132.87 568.633,1135.86 577.832,1138.32C587.5,1140.92 597.297,1143 607.191,1144.54Z" style="fill-rule:nonzero;"/>
                <path d="M534.465,1191.94C535.395,1192.28 536.152,1192.98 536.57,1193.88C536.988,1194.79 537.031,1195.81 536.688,1196.74C536.344,1197.67 535.641,1198.43 534.742,1198.85C533.844,1199.27 532.805,1199.31 531.875,1198.96C521.672,1195.2 511.703,1190.79 502.059,1185.78C501.168,1185.32 500.508,1184.53 500.207,1183.59C499.906,1182.64 500.004,1181.61 500.453,1180.73C500.914,1179.85 501.703,1179.19 502.645,1178.89C503.598,1178.59 504.625,1178.68 505.5,1179.14C514.879,1184 524.547,1188.28 534.465,1191.94Z" style="fill-rule:nonzero;"/>
                <path d="M591.359,1375.08C592.344,1375.21 593.242,1375.72 593.84,1376.5C594.453,1377.29 594.719,1378.29 594.59,1379.27C594.461,1380.26 593.949,1381.16 593.168,1381.75C592.379,1382.36 591.383,1382.63 590.398,1382.5C580.25,1381.18 570.141,1379.52 560.098,1377.51C550.508,1375.59 540.988,1373.34 531.555,1370.74C530.59,1370.47 529.777,1369.84 529.285,1368.98C528.805,1368.12 528.676,1367.09 528.934,1366.14C529.203,1365.18 529.832,1364.36 530.699,1363.87C531.566,1363.38 532.582,1363.26 533.543,1363.52C542.793,1366.07 552.141,1368.29 561.566,1370.17C571.438,1372.14 581.383,1373.78 591.359,1375.08Z" style="fill-rule:nonzero;"/>
                <path d="M820.555,1200C821.422,1199.52 822.449,1199.4 823.398,1199.67C824.363,1199.95 825.164,1200.59 825.648,1201.46C826.129,1202.32 826.246,1203.35 825.977,1204.3C825.699,1205.25 825.059,1206.07 824.191,1206.55C815.477,1211.39 806.469,1215.71 797.242,1219.49C787.348,1223.56 777.262,1227.08 767.004,1230.09C766.055,1230.38 765.027,1230.26 764.16,1229.79C763.285,1229.31 762.641,1228.5 762.363,1227.56C762.086,1226.6 762.191,1225.57 762.664,1224.71C763.145,1223.83 763.945,1223.19 764.898,1222.91C774.91,1219.97 784.75,1216.53 794.395,1212.57C803.359,1208.9 812.098,1204.7 820.555,1200Z" style="fill-rule:nonzero;"/>
                <path d="M731.422,1399.04C732.406,1398.88 733.414,1399.12 734.203,1399.71C735.008,1400.29 735.551,1401.18 735.703,1402.15C735.852,1403.13 735.605,1404.14 735.027,1404.94C734.438,1405.74 733.562,1406.28 732.578,1406.43C718.227,1408.68 703.777,1410.27 689.273,1411.21C688.289,1411.27 687.305,1410.94 686.566,1410.29C685.82,1409.64 685.359,1408.71 685.297,1407.72C685.23,1406.73 685.562,1405.75 686.215,1405C686.879,1404.26 687.797,1403.81 688.793,1403.73C703.059,1402.8 717.293,1401.24 731.422,1399.04Z" style="fill-rule:nonzero;"/>
                <path d="M655.242,1425.16C656.227,1425.16 657.188,1425.55 657.883,1426.25C658.59,1426.95 658.984,1427.9 658.984,1428.9C658.984,1429.88 658.59,1430.84 657.895,1431.54C657.188,1432.25 656.238,1432.64 655.242,1432.64C635.125,1432.66 615.02,1431.33 595.07,1428.62C585.629,1427.35 576.238,1425.73 566.914,1423.79C557.973,1421.93 549.117,1419.74 540.336,1417.22C539.383,1416.95 538.57,1416.31 538.09,1415.44C537.609,1414.58 537.488,1413.55 537.77,1412.6C538.047,1411.64 538.688,1410.84 539.555,1410.35C540.422,1409.87 541.445,1409.75 542.398,1410.03C550.996,1412.49 559.684,1414.63 568.441,1416.46C577.598,1418.36 586.816,1419.94 596.078,1421.21C615.691,1423.86 635.457,1425.18 655.242,1425.16Z" style="fill-rule:nonzero;"/>
                <path d="M595.402,1291.14C596.387,1291.25 597.285,1291.75 597.906,1292.54C598.516,1293.32 598.793,1294.31 598.676,1295.3C598.559,1296.28 598.055,1297.18 597.273,1297.8C596.496,1298.41 595.5,1298.69 594.516,1298.57C583.18,1297.21 571.906,1295.43 560.711,1293.23C550.059,1291.16 539.5,1288.64 529.051,1285.73C519.19,1282.98 509.457,1279.81 499.875,1276.21C490.902,1272.87 482.109,1269.07 473.523,1264.86C472.625,1264.43 471.949,1263.65 471.629,1262.71C471.309,1261.78 471.371,1260.74 471.812,1259.85C472.238,1258.96 473.02,1258.28 473.961,1257.96C474.891,1257.64 475.93,1257.7 476.816,1258.14C485.191,1262.25 493.758,1265.94 502.496,1269.21C511.875,1272.72 521.406,1275.83 531.062,1278.52C541.32,1281.38 551.691,1283.84 562.152,1285.89C573.168,1288.04 584.258,1289.8 595.402,1291.14Z" style="fill-rule:nonzero;"/>
                <path d="M655.242,1337.46C656.238,1337.46 657.188,1337.85 657.883,1338.55C658.59,1339.25 658.984,1340.2 658.984,1341.2C658.984,1342.19 658.59,1343.14 657.895,1343.84C657.188,1344.55 656.238,1344.94 655.242,1344.94C639.875,1344.95 624.504,1344.34 609.18,1343.14C594.57,1342 580.012,1340.26 565.543,1337.94C564.57,1337.78 563.691,1337.23 563.105,1336.43C562.527,1335.63 562.293,1334.62 562.441,1333.65C562.602,1332.66 563.148,1331.79 563.949,1331.21C564.75,1330.62 565.758,1330.39 566.742,1330.55C581.008,1332.84 595.359,1334.55 609.766,1335.68C624.891,1336.87 640.066,1337.46 655.242,1337.46Z" style="fill-rule:nonzero;"/>
                <path d="M777.816,1141.6C778.707,1141.14 779.734,1141.05 780.672,1141.35C781.613,1141.65 782.406,1142.32 782.867,1143.2C783.316,1144.09 783.402,1145.12 783.102,1146.06C782.801,1147.01 782.129,1147.79 781.25,1148.25C774.055,1151.96 766.664,1155.29 759.113,1158.22C751.211,1161.29 743.156,1163.97 734.984,1166.25C726.473,1168.62 717.852,1170.6 709.145,1172.18C700.117,1173.8 691.008,1175.02 681.863,1175.82C680.867,1175.91 679.883,1175.6 679.125,1174.96C678.367,1174.32 677.895,1173.4 677.809,1172.42C677.711,1171.44 678.023,1170.45 678.664,1169.68C679.305,1168.92 680.215,1168.45 681.211,1168.37C690.129,1167.59 699.008,1166.4 707.82,1164.81C716.289,1163.28 724.684,1161.35 732.973,1159.04C740.91,1156.83 748.727,1154.23 756.395,1151.24C763.699,1148.41 770.855,1145.18 777.816,1141.6Z" style="fill-rule:nonzero;"/>
                <path d="M716.965,1207.36C717.938,1207.2 718.941,1207.43 719.754,1208.02C720.559,1208.59 721.102,1209.47 721.262,1210.45C721.422,1211.43 721.188,1212.43 720.609,1213.23C720.023,1214.05 719.145,1214.59 718.172,1214.75C697.371,1218.15 676.32,1219.84 655.242,1219.81C641.734,1219.82 628.238,1219.12 614.805,1217.76C602.004,1216.44 589.273,1214.46 576.676,1211.81C575.703,1211.61 574.859,1211.02 574.312,1210.19C573.766,1209.36 573.586,1208.34 573.789,1207.37C573.992,1206.41 574.57,1205.56 575.402,1205.01C576.238,1204.47 577.242,1204.28 578.215,1204.48C590.559,1207.08 603.02,1209.02 615.562,1210.3C628.75,1211.66 641.992,1212.34 655.242,1212.32C675.914,1212.36 696.559,1210.7 716.965,1207.36Z" style="fill-rule:nonzero;"/>
                <path d="M655.242,1237.99C656.227,1237.99 657.188,1238.39 657.883,1239.08C658.59,1239.79 658.984,1240.74 658.984,1241.73C658.984,1242.72 658.59,1243.68 657.895,1244.38C657.188,1245.08 656.238,1245.48 655.242,1245.48C635.156,1245.5 615.102,1244.09 595.211,1241.25C594.238,1241.11 593.352,1240.59 592.75,1239.8C592.152,1239.01 591.895,1238 592.035,1237.02C592.172,1236.04 592.707,1235.15 593.5,1234.56C594.289,1233.96 595.285,1233.7 596.27,1233.84C615.797,1236.63 635.512,1238.01 655.242,1237.99Z" style="fill-rule:nonzero;"/>
                <path d="M752.77,1285C753.734,1284.79 754.75,1284.98 755.582,1285.53C756.406,1286.08 756.996,1286.93 757.188,1287.91C757.391,1288.87 757.199,1289.88 756.652,1290.72C756.105,1291.54 755.25,1292.12 754.289,1292.32C744.055,1294.44 733.742,1296.2 723.391,1297.62C710.535,1299.36 697.625,1300.6 684.676,1301.33C683.68,1301.39 682.707,1301.05 681.969,1300.39C681.23,1299.72 680.781,1298.79 680.727,1297.81C680.676,1296.82 681.016,1295.84 681.668,1295.1C682.332,1294.36 683.262,1293.91 684.258,1293.85C697.008,1293.14 709.723,1291.92 722.375,1290.19C732.566,1288.81 742.695,1287.08 752.77,1285Z" style="fill-rule:nonzero;"/>
                <path d="M833.379,1306.25C834.297,1305.88 835.336,1305.88 836.246,1306.27C837.156,1306.66 837.883,1307.39 838.258,1308.31C838.629,1309.23 838.621,1310.27 838.234,1311.18C837.852,1312.1 837.113,1312.81 836.191,1313.19C823.699,1318.25 810.941,1322.61 797.969,1326.27C797.016,1326.54 795.988,1326.42 795.121,1325.94C794.258,1325.44 793.625,1324.64 793.359,1323.68C793.078,1322.73 793.207,1321.7 793.691,1320.84C794.172,1319.97 794.984,1319.34 795.938,1319.06C808.641,1315.49 821.145,1311.21 833.379,1306.25Z" style="fill-rule:nonzero;"/>
                <path d="M817.07,1349.77C817.988,1349.39 819.016,1349.38 819.934,1349.77C820.855,1350.14 821.582,1350.87 821.969,1351.79C822.352,1352.69 822.352,1353.73 821.977,1354.64C821.594,1355.56 820.867,1356.3 819.957,1356.68C811.016,1360.41 801.926,1363.73 792.695,1366.65C782.887,1369.77 772.973,1372.48 762.953,1374.79C752.406,1377.24 741.766,1379.29 731.059,1380.94C719.863,1382.66 708.609,1384 697.316,1384.93C696.332,1385 695.348,1384.69 694.59,1384.06C693.84,1383.41 693.371,1382.49 693.285,1381.51C693.199,1380.52 693.52,1379.53 694.16,1378.78C694.805,1378.02 695.711,1377.55 696.707,1377.46C707.82,1376.56 718.898,1375.24 729.914,1373.54C740.438,1371.91 750.898,1369.9 761.262,1367.5C771.09,1365.23 780.824,1362.57 790.43,1359.52C799.453,1356.66 808.34,1353.41 817.07,1349.77Z" style="fill-rule:nonzero;"/>
                <path d="M618.977,1403.55C619.969,1403.62 620.891,1404.09 621.543,1404.84C622.195,1405.58 622.516,1406.56 622.453,1407.55C622.375,1408.54 621.918,1409.46 621.168,1410.11C620.418,1410.76 619.445,1411.09 618.453,1411.02C600.398,1409.75 582.43,1407.45 564.645,1404.15C556.227,1402.58 547.863,1400.75 539.566,1398.68C531.617,1396.69 523.734,1394.45 515.93,1391.96C514.977,1391.65 514.195,1390.98 513.737,1390.11C513.289,1389.22 513.203,1388.19 513.5,1387.25C513.801,1386.3 514.465,1385.52 515.352,1385.06C516.227,1384.61 517.254,1384.52 518.206,1384.82C525.852,1387.27 533.586,1389.46 541.383,1391.41C549.531,1393.45 557.746,1395.25 566.016,1396.79C583.52,1400.04 601.211,1402.3 618.977,1403.55Z" style="fill-rule:nonzero;"/>
            </g>
        </g>
    </g>
</svg>
